<svg data-name="Layer 1" xmlns="http://www.w3.org/2000/svg" viewBox="0 0 445.15 952.21"><rect x="1" y="1" width="443.15" height="950.21" rx="41" fill="#fff"/><path d="M403.15 2a40 40 0 0140 40v868.21a40 40 0 01-40 40H42a40 40 0 01-40-40V42A40 40 0 0142 2h361.15m0-2H42A42 42 0 000 42v868.21a42.05 42.05 0 0042 42h361.15a42.05 42.05 0 0042-42V42a42 42 0 00-42-42z" fill="#222055"/><path d="M52.61 17.59h339.93A39.46 39.46 0 01432 57.05V893.3a30.21 30.21 0 01-30.21 30.21H29.3a16.15 16.15 0 01-16.15-16.15V57.05a39.46 39.46 0 0139.46-39.46z" fill="#e7e7e7"/><path d="M13 117.46h419.19v789.21a18.44 18.44 0 01-18.44 18.44H31.4A18.44 18.44 0 0113 906.67V117.46z" fill="#fff"/><path fill="#e8f1ff" d="M223.41 769.32H406.8v31.3H223.41z"/><path d="M53.06 16.84h339a40.1 40.1 0 0140.1 40.1v60.52H13V56.94a40.1 40.1 0 0140.06-40.1z" fill="#236eaf"/><rect x="148.11" y="910.34" width="148.84" height="5.47" rx="2.73" fill="#fff"/><path d="M180.33 92.27V74.84h3.43v17.43zM187.93 78.7h3.26v2.39h.16a3.83 3.83 0 014-2.6c2.7 0 4.49 1.56 4.49 4.72v9.06h-3.34v-8.09c0-2-1.05-2.75-2.42-2.75-1.81 0-2.83 1.33-2.83 3.32v7.52h-3.34zM202.1 78.7h3.64l2.67 10.3h.14l2.94-10.34H215l-4.7 13.61h-3.72zM229 84.73v1.44c0 4.06-2.46 6.35-6.14 6.35s-6.19-2.26-6.19-6.34v-1.44a5.9 5.9 0 016.19-6.29c3.67 0 6.14 2.43 6.14 6.28zm-9 .07v1.38c0 2 .88 3.64 2.81 3.64s2.76-1.67 2.76-3.64V84.8c0-2-.91-3.65-2.76-3.65S220 82.8 220 84.8zM234.26 72.82a1.91 1.91 0 11-2.09 1.91 1.91 1.91 0 012.09-1.91zm-1.66 5.88h3.34v13.57h-3.34zM239.56 84.62c0-3.74 2.32-6.17 6-6.17 3.52 0 5.51 2.16 5.56 4.82H248a2.21 2.21 0 00-2.39-2c-1.75 0-2.71 1.34-2.71 3.42v1.57c0 2.19 1 3.51 2.72 3.51s2.28-.8 2.43-1.91h3.08c0 2.65-1.93 4.69-5.61 4.69s-6-2.38-6-6.28zM253.75 86.26V84.7c0-4.06 2.62-6.25 6-6.25s5.95 2.39 5.95 6.25v1.54H257v.66a2.75 2.75 0 002.86 2.95c1.37 0 2.33-.65 2.49-1.5h3.17c-.14 1.71-1.8 4.17-5.65 4.17s-6.12-2.23-6.12-6.26zm8.68-2.1V84a2.68 2.68 0 00-2.69-3 2.71 2.71 0 00-2.74 3v.12zM46.62 96.08A2.26 2.26 0 0145 95.4l-9.28-9.27a2.34 2.34 0 01-.72-1.64 2.32 2.32 0 01.68-1.63l9.08-9.08a2.31 2.31 0 113.27 3.27l-7.45 7.44 7.65 7.64a2.32 2.32 0 010 3.27 2.28 2.28 0 01-1.61.68z" fill="#fff"/><circle cx="60.17" cy="171.37" r="14.06" fill="#236eaf"/><path d="M52.7 212v1.68h-8.45v-.83l5.86-8.51h-5.27v-1.66h8v.83L47.15 212zM61.39 205.59L57 216.38h-1.9l1.46-3.56-3.15-7.23h2.05l2.1 5.13 2-5.13zM64.72 201.49v12.14H62.8v-11.31zM68.86 209.71v3.92h-1.92v-11.75h1.92v7.21l2.9-3.5h2.1l-3.18 3.69 3.42 4.35h-2.21zM78.81 213.78a3.91 3.91 0 01-4.13-4.2 4 4 0 014-4.16c2.78 0 3.85 1.9 3.85 4.43v.15h-5.89a2.27 2.27 0 004.25 1.19l1.5.66a3.66 3.66 0 01-3.58 1.93zm-2.14-5h4a1.81 1.81 0 00-2-2 2.06 2.06 0 00-2 1.99zM86.12 209.48v4.15H84.2v-8h1.92v1.5a2.75 2.75 0 012.63-1.63v1.79c-1.57-.03-2.63.46-2.63 2.19zM97 213.63h-3.68v-11H97c3.6 0 5.75 1.88 5.75 5.52s-2.24 5.48-5.75 5.48zM95.45 212H97c2.57 0 3.6-1.51 3.6-3.92s-1.1-3.77-3.63-3.77h-1.52zM108.13 213.78a3.91 3.91 0 01-4.12-4.2 4 4 0 014-4.16c2.77 0 3.85 1.9 3.85 4.43v.15H106a2.27 2.27 0 004.25 1.19l1.5.66a3.67 3.67 0 01-3.62 1.93zm-2.13-5h4a1.8 1.8 0 00-1.94-2 2.06 2.06 0 00-2.06 1.99zM119.6 212.11v1.52h-7v-.75l4.45-5.79h-4v-1.5h6.66v.75l-4.45 5.77zM122.11 204.29a1.09 1.09 0 110-2.18 1.09 1.09 0 011.12 1.09 1.07 1.07 0 01-1.12 1.09zm1 1.3v8h-1.92v-8zM128.78 216.58c-1.51 0-3.11-.41-3.74-1.93l1.51-.67a2.23 2.23 0 002.23 1.16 2 2 0 002.27-2.14v-1.2a3.17 3.17 0 01-2.69 1.51c-2.28 0-3.58-1.8-3.58-3.94a3.7 3.7 0 013.63-4 2.91 2.91 0 012.64 1.4v-1.23H133V213c0 2.55-1.92 3.58-4.22 3.58zm.09-4.75a2.24 2.24 0 002.24-2.52 2.14 2.14 0 00-2.18-2.42c-1.55 0-2.18 1.17-2.18 2.57a2.17 2.17 0 002.12 2.37zM137.09 208.91v4.72h-1.93v-8h1.93v1.27a2.88 2.88 0 012.66-1.44c2 0 2.83 1.37 2.83 3.18v5h-1.94v-4.84c0-1.13-.51-1.79-1.68-1.79a1.74 1.74 0 00-1.87 1.9zM147.47 213.78c-1.41 0-2.92-.49-3.41-1.92l1.47-.63a2 2 0 001.92 1.17c.68 0 1.45-.2 1.45-1 0-1.74-4.67-.35-4.67-3.52 0-1.65 1.62-2.43 3.07-2.43a3.34 3.34 0 013.25 1.73l-1.42.62a1.9 1.9 0 00-1.83-1c-.57 0-1.27.26-1.27.93 0 1.68 4.71.28 4.71 3.46 0 1.92-1.58 2.59-3.27 2.59zM45.77 366.78h5.51c2.41 0 4 1.3 4 3.41a2.94 2.94 0 01-2.3 3v.1a3.2 3.2 0 013 3.39c0 2.46-1.93 3.89-4.81 3.89h-5.4zm2.29 5.82H50c2.05 0 3-.69 3-2s-.8-1.92-2.17-1.92h-2.77zm0 6.13h2.2c2.41 0 3.39-.69 3.39-2.12s-.95-2.23-2.66-2.23h-2.93zM60.09 365.28a1.4 1.4 0 110 2.79 1.4 1.4 0 110-2.79zM59 369.9h2.24v10.71H59zM64.91 366.06h2.25v14.55h-2.25zM70.69 366.06h2.25v14.55h-2.25zM83.85 380.61v-11.77h-4v-2.06h10.4v2.06h-4.1v11.77zM100.17 374.57v1.33c0 3.13-2 4.9-4.75 4.9s-4.78-1.75-4.78-4.9v-1.32a4.57 4.57 0 014.78-4.87 4.52 4.52 0 014.75 4.86zm-7.26.1v1.17c0 1.74.86 3.07 2.52 3.07s2.48-1.32 2.48-3.07v-1.17c0-1.75-.88-3.07-2.48-3.07s-2.52 1.32-2.52 3.07zM294.83 182.74V162.4h3.39v20.34zM303.58 182.74V162.4h3l9.5 14.31h.15V162.4h3.25v20.34h-3L307 168.39h-.14v14.35zM322.72 162.4h3.89l5.05 16.38h.17l5-16.38h3.77l-7 20.34h-3.85zM351.14 183.15c-5.21 0-8.46-3.45-8.46-9.2v-2.73c0-5.78 3.25-9.23 8.46-9.23s8.46 3.46 8.46 9.23V174c0 5.7-3.24 9.15-8.46 9.15zm0-18.13c-2.9 0-5 2-5 6.17V174c0 4.13 2.14 6.18 5 6.18s5-2 5-6.18v-2.77c.03-4.17-2.14-6.23-5-6.23zM364.14 182.74V162.4h3.38v20.34zM375.49 174c0 3.94 1.79 6.14 4.91 6.14 2.49 0 4.17-1.47 4.4-3.59h3.29v.28c-.25 3.74-3.44 6.37-7.7 6.37-5.33 0-8.32-3.43-8.32-9.2v-2.68c0-5.76 3.05-9.28 8.32-9.28 4.27 0 7.46 2.72 7.7 6.62v.27h-3.29a4.21 4.21 0 00-4.4-3.83c-3.09 0-4.91 2.3-4.91 6.25zM405.23 182.74h-12.7V162.4h12.7v3h-9.33v5.6h8.78v2.82h-8.78v5.95h9.33z"/><path d="M315.13 210.75v-12.82h1.38v12.82zM320.23 210.75v-12.82h1.39l6.68 10.46h.08v-10.46h1.37v12.82h-1.37l-6.71-10.45h-.06v10.45zM332.05 197.93h1.57l3.76 11.16h.07l3.77-11.16h1.56l-4.69 12.82h-1.36zM352.06 202.64l-.68 3.3h2.18l-.22 1.08h-2.18l-.76 3.73h-1.11l.76-3.73h-3.18l-.76 3.73H345l.75-3.73h-2.05l.22-1.08H346l.68-3.3h-2.07l.22-1.07h2.07l.74-3.65h1.12l-.74 3.65h3.17l.74-3.65H353l-.74 3.65h2.19l-.22 1.07zm-5 3.3h3.18l.67-3.3h-3.17zM355.83 206.09v-1.21h5.93v1.21zM364 204.11c0-3.91 1.66-6.46 4.48-6.46s4.45 2.54 4.45 6.46v.5c0 3.9-1.64 6.42-4.46 6.42s-4.47-2.52-4.47-6.42zm1.36.48c0 3.26 1.24 5.22 3.11 5.22s3.1-2 3.1-5.22v-.48c0-3.25-1.22-5.24-3.1-5.24s-3.11 2-3.11 5.24zM375.59 204.11c0-3.91 1.65-6.46 4.47-6.46s4.46 2.54 4.46 6.46v.5c0 3.9-1.65 6.42-4.47 6.42s-4.46-2.52-4.46-6.42zm1.35.48c0 3.26 1.24 5.22 3.11 5.22s3.11-2 3.11-5.22v-.48c0-3.25-1.23-5.24-3.11-5.24s-3.11 2-3.11 5.24zM387.23 201.38a3.66 3.66 0 013.95-3.69c2.38 0 3.88 1.5 3.88 3.48 0 1.57-.95 2.67-2.12 4l-3.72 4.28v.09h6.1v1.23h-8.07v-.89l4.9-5.66a4.59 4.59 0 001.5-3 2.29 2.29 0 00-2.5-2.33 2.43 2.43 0 00-2.58 2.47zM400.32 203.53h1.29a2.39 2.39 0 002.55-2.39 2.57 2.57 0 00-5-.36h-1.33c0-1.5 1.32-3.11 3.83-3.13s3.9 1.43 3.94 3.26a3.09 3.09 0 01-2.41 3.11v.09a3.17 3.17 0 012.86 3.12c0 2.18-1.78 3.81-4.42 3.81-2.46 0-4-1.4-4.11-3.18h1.31c.11 1.09 1.24 2 2.84 2 1.83 0 3-1.09 3-2.57s-1.23-2.49-2.92-2.49h-1.37z" fill="#6189af"/><path d="M302.28 271.7h4.59c2.16 0 3.52 1.2 3.52 3.12a2.78 2.78 0 01-2 2.83v.06a3 3 0 012.77 3.15c0 2.19-1.65 3.54-4.4 3.54h-4.44zm1.36 5.55h2.18c2.13 0 3.18-.68 3.18-2.2 0-1.34-.87-2.11-2.34-2.11h-3zm0 5.9h2.45c2.55 0 3.63-.68 3.63-2.25s-1.08-2.42-2.83-2.42h-3.25zM313.38 281.57c0-1.67 1.17-2.83 3.4-2.83h2.66v-1.05c0-1.37-.88-2-2.24-2s-1.92.56-2.13 1.25h-1.31c.15-1.58 1.46-2.45 3.51-2.45s3.53.88 3.53 3.17v6.74h-1.31V283h-.06a3.17 3.17 0 01-2.87 1.51 2.92 2.92 0 01-3.18-2.94zm6.06-.52v-1.18h-2.63c-1.45 0-2 .73-2 1.68 0 1.23 1 1.81 2.11 1.81a2.39 2.39 0 002.52-2.31zM324.26 271h1.35v13.4h-1.35zM328.54 281.57c0-1.67 1.17-2.83 3.39-2.83h2.67v-1.05c0-1.37-.88-2-2.24-2s-1.92.56-2.13 1.25h-1.31c.15-1.58 1.46-2.45 3.51-2.45s3.53.88 3.53 3.17v6.74h-1.31V283h-.06a3.17 3.17 0 01-2.87 1.51 2.92 2.92 0 01-3.18-2.94zm6.06-.52v-1.18H332c-1.44 0-2 .73-2 1.68 0 1.23 1 1.81 2.12 1.81a2.39 2.39 0 002.48-2.31zM339.35 274.65h1.34v1.81h.07a2.8 2.8 0 013-2 3 3 0 013.33 3.25v6.66h-1.35v-6.23c0-1.58-.81-2.48-2.28-2.48-1.88 0-2.77 1.45-2.77 3.21v5.5h-1.34zM350 278.66c0-2.55 1.54-4.17 4-4.17s3.6 1.51 3.65 2.87h-1.34a2.07 2.07 0 00-2.29-1.64c-1.72 0-2.65 1.16-2.65 3v1.63c0 1.83 1 3 2.66 3s2.16-.74 2.34-1.5h1.34c-.06 1.3-1.17 2.73-3.71 2.73s-4-1.6-4-4.19zM360 280.29v-1.51c0-2.64 1.64-4.29 3.94-4.29s3.93 1.65 3.93 4.29v1.09h-6.52v.51c0 1.71.94 3 2.7 3a2.2 2.2 0 002.26-1.28h1.42c-.15 1-1.3 2.47-3.67 2.47-2.57-.02-4.06-1.68-4.06-4.28zm6.52-1.47v-.16c0-1.81-1-3-2.58-3s-2.59 1.16-2.59 3v.16zM379.11 271.7c3.71 0 5.58 2.2 5.58 6.35s-1.86 6.35-5.58 6.35h-3.89v-12.7zm-2.53 11.45h2.49c2.84 0 4.21-1.73 4.21-5.1s-1.39-5.11-4.21-5.11h-2.49zM395.21 284.4h-1.35v-1.67h-.07a2.94 2.94 0 01-3 1.82c-1.94 0-3.35-.86-3.35-3.12v-6.78h1.35v6.43a2.06 2.06 0 002.3 2.28 2.63 2.63 0 002.72-2.54v-6.17h1.35zM398.18 280.29v-1.51c0-2.64 1.64-4.29 3.94-4.29s3.93 1.65 3.93 4.29v1.09h-6.52v.51c0 1.71.94 3 2.7 3a2.2 2.2 0 002.26-1.28h1.42c-.15 1-1.3 2.47-3.67 2.47-2.57-.02-4.06-1.68-4.06-4.28zm6.52-1.47v-.16c0-1.81-1-3-2.58-3s-2.59 1.16-2.59 3v.16zM243.62 406.19v-8.37h.9v8.37zM246.87 399.77h.89V401h.05a1.83 1.83 0 012-1.3 2 2 0 012.2 2.15v4.38h-.89v-4.1a1.43 1.43 0 00-1.51-1.63c-1.24 0-1.82 1-1.82 2.11v3.62h-.89zM253.29 399.77h1l1.73 5.46 1.84-5.46h.95l-2.35 6.42h-.89zM265.34 402.47v1a2.71 2.71 0 11-5.42 0v-1a2.63 2.63 0 012.72-2.81 2.6 2.6 0 012.7 2.81zm-4.53.11v.81c0 1.32.7 2.12 1.83 2.12s1.81-.8 1.81-2.12v-.81c0-1.29-.72-2.12-1.81-2.12a1.87 1.87 0 00-1.83 2.12zM267.89 397.1a.68.68 0 11-.68.69.66.66 0 01.68-.69zm-.44 2.67h.88v6.42h-.88zM270.44 402.41a2.51 2.51 0 012.62-2.75 2.15 2.15 0 012.4 1.89h-.88a1.37 1.37 0 00-1.51-1.08c-1.13 0-1.74.77-1.74 2v1.07a1.71 1.71 0 001.75 2c1 0 1.42-.49 1.54-1h.89c-.05.86-.78 1.81-2.45 1.81a2.51 2.51 0 01-2.62-2.77zM277 403.48v-1a2.6 2.6 0 115.19 0v.72h-4.3v.34a1.75 1.75 0 001.77 2 1.43 1.43 0 001.49-.85h.94a2.25 2.25 0 01-2.42 1.64 2.54 2.54 0 01-2.67-2.85zm4.3-1v-.11a1.72 1.72 0 10-3.41 0v.11zM289.62 397.82c2.44 0 3.67 1.46 3.67 4.19s-1.23 4.18-3.67 4.18h-2.57v-8.37zm-1.62 7.55h1.63c1.88 0 2.78-1.14 2.78-3.36s-.91-3.37-2.78-3.37H288zM294.8 404.33c0-1.1.77-1.86 2.24-1.86h1.76v-.7c0-.9-.58-1.31-1.48-1.31s-1.27.36-1.4.82h-.87c.1-1 1-1.62 2.32-1.62s2.32.58 2.32 2.1v4.43h-.86v-.89a2.11 2.11 0 01-1.89 1 1.93 1.93 0 01-2.14-1.97zm4-.34v-.78h-1.74c-.95 0-1.34.48-1.34 1.1a1.23 1.23 0 001.39 1.2 1.58 1.58 0 001.69-1.51zM302.25 398.16h.89v1.61h1.51v.74h-1.51v4c0 .79.25 1 1.08 1h.53v.74a6.81 6.81 0 01-.74.05c-1.47 0-1.76-.57-1.76-1.8v-3.94h-1v-.74h1zM306.2 403.48v-1a2.6 2.6 0 115.19 0v.72h-4.3v.34a1.75 1.75 0 001.78 2 1.44 1.44 0 001.49-.85h.94a2.26 2.26 0 01-2.43 1.64 2.54 2.54 0 01-2.67-2.85zm4.3-1v-.11a1.72 1.72 0 10-3.41 0v.11zM314 400.49a.78.78 0 110 1.55.78.78 0 010-1.55zm0 4.23a.78.78 0 110 1.56.78.78 0 010-1.56zM280.46 433.57V426h-2.6v-.81H284v.81h-2.6v7.55zM284.33 430.87v-1a2.6 2.6 0 115.19 0v.71h-4.3v.34a1.75 1.75 0 001.78 2 1.44 1.44 0 001.49-.84h.94a2.27 2.27 0 01-2.43 1.63 2.53 2.53 0 01-2.67-2.84zm4.3-1v-.1a1.72 1.72 0 10-3.41 0v.1zM291.53 427.15h.88v1a1.76 1.76 0 011.81-1.13h.4v.83a3.16 3.16 0 00-.5 0 1.59 1.59 0 00-1.76 1.65v4h-.88zM296.19 427.15h.88v1h.05a1.65 1.65 0 011.75-1.13 1.76 1.76 0 011.81 1.23 2 2 0 012-1.23 1.88 1.88 0 012.11 2v4.51h-.88v-4.23a1.33 1.33 0 00-1.44-1.46 1.53 1.53 0 00-1.54 1.6v4.13h-.88v-4.23a1.39 1.39 0 00-1.47-1.5 1.5 1.5 0 00-1.51 1.61v4.12h-.88zM309 427.05c1.4 0 2.24.77 2.24 1.76h-.83c0-.47-.48-1-1.45-1-.79 0-1.4.36-1.4 1.05s.81.93 1.6 1.09c1.2.22 2.24.52 2.24 1.78s-1 2-2.49 2-2.35-.66-2.35-1.76h.87c.08.59.5 1 1.52 1s1.57-.48 1.57-1.11-.74-.94-1.65-1.12c-1.22-.26-2.18-.53-2.18-1.76s1.12-1.93 2.31-1.93zM314 427.87a.78.78 0 110 1.56.78.78 0 010-1.56zm0 4.23a.78.78 0 110 1.56.78.78 0 010-1.56zM264.47 452.59c2.45 0 3.68 1.46 3.68 4.19s-1.23 4.18-3.68 4.18h-2.56v-8.37zm-1.66 7.55h1.63c1.88 0 2.78-1.14 2.78-3.36s-.91-3.37-2.78-3.37h-1.63zM275.08 461h-.89v-1.1h-.05a2 2 0 01-1.95 1.2c-1.27 0-2.2-.57-2.2-2.05v-4.47h.89v4.24a1.36 1.36 0 001.51 1.5 1.74 1.74 0 001.8-1.68v-4.06h.89zM277 458.25v-1a2.6 2.6 0 115.19 0v.75h-4.3v.34a1.75 1.75 0 001.77 2 1.45 1.45 0 001.5-.85h.93a2.25 2.25 0 01-2.42 1.63 2.53 2.53 0 01-2.67-2.87zm4.3-1v-.1a1.72 1.72 0 10-3.41 0v.1zM289.62 452.59c2.44 0 3.67 1.46 3.67 4.19s-1.23 4.18-3.67 4.18h-2.57v-8.37zm-1.62 7.55h1.63c1.88 0 2.78-1.14 2.78-3.36s-.91-3.37-2.78-3.37H288zM294.8 459.1c0-1.1.77-1.86 2.24-1.86h1.76v-.7c0-.9-.58-1.32-1.48-1.32s-1.27.37-1.4.83h-.87c.1-1.05 1-1.62 2.32-1.62s2.32.58 2.32 2.09V461h-.86v-.9a2.09 2.09 0 01-1.89 1 1.92 1.92 0 01-2.14-2zm4-.34V458h-1.74c-.95 0-1.34.48-1.34 1.1a1.23 1.23 0 001.39 1.2 1.58 1.58 0 001.69-1.54zM302.25 452.93h.89v1.61h1.51v.74h-1.51v4c0 .79.25 1 1.08 1h.53v.72a6.81 6.81 0 01-.74 0c-1.47 0-1.76-.57-1.76-1.8v-3.94h-1v-.74h1zM306.2 458.25v-1a2.6 2.6 0 115.19 0v.75h-4.3v.34a1.75 1.75 0 001.78 2 1.44 1.44 0 001.49-.85h.94a2.27 2.27 0 01-2.43 1.63 2.53 2.53 0 01-2.67-2.87zm4.3-1v-.1a1.72 1.72 0 10-3.41 0v.1zM314 455.25a.78.78 0 01.8.8.77.77 0 01-.8.76.75.75 0 01-.76-.76.77.77 0 01.76-.8zm0 4.24a.78.78 0 110 1.56.78.78 0 010-1.56z" fill="#236eaf"/><rect x="80.59" y="651.59" width="85.57" height="5.81" rx="2.91" fill="#def5ff"/><rect x="45.19" y="651.59" width="14.87" height="5.81" rx="2.91" fill="#def5ff"/><rect x="228.58" y="651.59" width="24.58" height="5.81" rx="2.91" fill="#def5ff"/><rect x="277.64" y="651.59" width="40.37" height="5.81" rx="2.91" fill="#def5ff"/><rect x="352.51" y="651.59" width="40.37" height="5.81" rx="2.91" fill="#def5ff"/><path fill="#236eaf" d="M37.91 539.66h369.33v36.37H37.91z"/><path d="M54.4 556.59l-.33 1.56h1.32l-.23 1.22h-1.3l-.45 2.23h-1.22l.45-2.23h-1.59l-.46 2.23h-1.22l.44-2.23h-1.24l.23-1.22h1.28l.32-1.56h-1.26l.23-1.2h1.24l.43-2.16h1.23l-.44 2.16h1.6l.43-2.16h1.23l-.43 2.16H56l-.22 1.2zm-3.22 1.69h1.75l.37-1.81h-1.75zM81.09 561.6v-8.37h1.66v8.37zM86 553.54h1.57v1.62H89v1.28h-1.43v3.09c0 .63.27.83 1 .83a4.28 4.28 0 00.56 0v1.24a8 8 0 01-1 .07c-1.62 0-2.16-.54-2.16-1.88v-3.32H85v-1.28h1zM91 558.72V558a2.88 2.88 0 115.76 0v.74h-4.13v.26a1.32 1.32 0 001.37 1.44c.66 0 1.13-.31 1.2-.72h1.53a2.46 2.46 0 01-2.73 2 2.75 2.75 0 01-3-3zm4.2-1v-.06a1.31 1.31 0 10-2.61 0v.06zM99.15 555.08h1.58v1.09h.08a1.68 1.68 0 011.78-1.18 1.71 1.71 0 011.78 1.22h.06a2 2 0 012-1.22 1.91 1.91 0 012.09 2.07v4.54h-1.61v-4c0-.83-.44-1.21-1.11-1.21a1.17 1.17 0 00-1.18 1.3v3.93h-1.55v-4a1.09 1.09 0 00-1.14-1.24 1.14 1.14 0 00-1.15 1.28v4h-1.63zM119.77 560.91a4 4 0 01-2.59.86c-1.71 0-2.89-.91-2.89-2.34a2.53 2.53 0 011.56-2.24l.37-.19a2.82 2.82 0 01-1-1.91 2.09 2.09 0 012.32-1.93 2 2 0 012.29 1.91c0 1.06-.82 1.69-1.7 2.16l1.66 1.76a3.5 3.5 0 00.31-1.68v-.42h1.33v.51a4.36 4.36 0 01-.7 2.59l1.54 1.61h-1.79zm-4-1.61c0 .84.73 1.28 1.57 1.28A2.34 2.34 0 00119 560l-2-2.12-.24.12a1.51 1.51 0 00-.99 1.3zm2.69-4.12a.89.89 0 00-.95-.92.9.9 0 00-1 .92c0 .39.21.71.79 1.28.7-.33 1.16-.68 1.16-1.28zM130.71 553.23c2.54 0 3.75 1.53 3.75 4.17s-1.23 4.2-3.75 4.2h-3.06v-8.37zm-1.4 7h1.18c1.56 0 2.26-.91 2.26-2.77s-.71-2.8-2.26-2.8h-1.18zM136.58 558.72V558a2.88 2.88 0 115.76 0v.74h-4.18v.26a1.32 1.32 0 001.38 1.42c.66 0 1.13-.31 1.2-.72h1.54a2.47 2.47 0 01-2.73 2 2.74 2.74 0 01-2.97-2.98zm4.2-1v-.06a1.32 1.32 0 10-2.62 0v.06zM147.05 555c1.46 0 2.48.69 2.48 1.92h-1.43a1 1 0 00-1.08-.78c-.65 0-1.05.3-1.05.77 0 .66 1 .74 1.68.87 1.21.2 2.08.65 2.08 1.84s-1 2.13-2.79 2.13-2.63-.77-2.63-1.92h1.56c.06.45.42.77 1.15.77s1.14-.35 1.14-.79c0-.61-.76-.69-1.61-.86-1.17-.22-2.12-.63-2.12-1.9 0-1.49 1.24-2.05 2.62-2.05zM151.76 557.93a2.73 2.73 0 012.89-3 2.41 2.41 0 012.69 2.31h-1.49a1.06 1.06 0 00-1.16-1c-.84 0-1.31.64-1.31 1.64v.75c0 1 .49 1.69 1.32 1.69a1 1 0 001.17-.92h1.49c0 1.28-.93 2.25-2.71 2.25a2.72 2.72 0 01-2.89-3zM159.72 555.08h1.61v1h.08a1.63 1.63 0 011.64-1.12 2.17 2.17 0 01.51 0v1.45a2.6 2.6 0 00-.64-.06 1.38 1.38 0 00-1.55 1.48v3.69h-1.65zM166.55 552.26a.92.92 0 110 1.82.91.91 0 110-1.82zm-.81 2.82h1.62v6.52h-1.62zM171.85 560.6h-.08v3.17h-1.62v-8.69h1.59v1h.09a1.89 1.89 0 011.89-1.12c1.51 0 2.43 1.1 2.43 2.91v.86c0 1.82-.92 2.91-2.45 2.91a1.87 1.87 0 01-1.85-1.04zm2.65-2v-.54c0-1.11-.49-1.74-1.36-1.74s-1.37.62-1.37 1.64v.81a1.41 1.41 0 001.38 1.57c.85.02 1.35-.62 1.35-1.72zM179 553.54h1.57v1.62H182v1.28h-1.44v3.09c0 .63.27.83 1 .83a4.28 4.28 0 00.56 0v1.24a8 8 0 01-1 .07c-1.62 0-2.15-.54-2.15-1.88v-3.32h-1v-1.28h1zM185.23 552.26a.91.91 0 11-1 .92.92.92 0 011-.92zm-.8 2.82H186v6.52h-1.61zM194.5 558v.69a3 3 0 11-6 0V558a2.84 2.84 0 013-3 2.8 2.8 0 013 3zm-4.33 0v.66c0 .94.43 1.75 1.36 1.75s1.34-.81 1.34-1.75V558c0-1-.45-1.76-1.34-1.76s-1.36.81-1.36 1.76zM196.87 555.08h1.57v1.15h.08a1.85 1.85 0 011.94-1.24 2 2 0 012.17 2.26v4.35H201v-3.88c0-1-.51-1.32-1.17-1.32-.87 0-1.37.63-1.37 1.59v3.61h-1.61zM236.33 562.43l-.62-.87a3.62 3.62 0 01-1.26.2c-2.21 0-3.58-1.5-3.58-3.82v-1c0-2.34 1.37-3.84 3.58-3.84s3.59 1.51 3.59 3.84v1a3.83 3.83 0 01-1.13 2.94l1.06 1.55zm-1.91-2a1.51 1.51 0 00.53-.09L234 559h1.53l.45.56a2.71 2.71 0 00.43-1.6v-1.08c0-1.51-.76-2.4-2-2.4s-1.95.89-1.95 2.4V558c.04 1.53.77 2.41 1.96 2.44zM241 553.54h1.57v1.62H244v1.28h-1.45v3.09c0 .63.28.83.95.83a4.28 4.28 0 00.56 0v1.24a7.77 7.77 0 01-.95.07c-1.62 0-2.16-.54-2.16-1.88v-3.32h-1v-1.28h1zM249.94 561.4l-.15.38c-.56 1.52-1.35 2.11-2.74 2.11a5.14 5.14 0 01-.86-.07v-1.21a2.55 2.55 0 00.52 0c.73 0 1.09-.25 1.22-.88v-.16l-2.26-6.53h1.79l1.38 5.09h.16l1.41-5.09h1.71c-.5 1.67-2.12 6.32-2.18 6.36zM295.29 555.89a2.46 2.46 0 01-1.52 2.36l1.68 3.35h-1.85l-1.47-3.09h-1.48v3.09H289v-8.37h3.34c1.87 0 2.95 1.06 2.95 2.66zm-3.2 1.34c.92 0 1.49-.43 1.49-1.31a1.31 1.31 0 00-1.47-1.35h-1.46v2.66zM297.38 559.72c0-1.18.81-2 2.32-2h1.59v-.57c0-.63-.43-.93-1.09-.93s-1 .28-1.05.68h-1.53c.07-1.06.83-2 2.62-2 1.46 0 2.65.58 2.65 2.25v4.36h-1.53v-.82h-.07a1.9 1.9 0 01-1.77.92 1.94 1.94 0 01-2.14-1.89zm3.91-.29v-.67H300c-.72 0-1.05.35-1.05.84s.51.88 1.06.88a1.14 1.14 0 001.28-1.05zM306 553.54h1.57v1.62H309v1.28h-1.44v3.09c0 .63.27.83.94.83a4.28 4.28 0 00.56 0v1.24a7.77 7.77 0 01-.95.07c-1.62 0-2.16-.54-2.16-1.88v-3.32h-1v-1.28h1zM311 558.72V558a2.88 2.88 0 115.76 0v.74h-4.18v.26a1.32 1.32 0 001.38 1.42c.66 0 1.13-.31 1.2-.72h1.54a2.48 2.48 0 01-2.73 2 2.74 2.74 0 01-2.97-2.98zm4.19-1v-.06a1.31 1.31 0 10-2.61 0v.06zM344.07 561.6l2.81-8.37h1.93l2.8 8.37h-1.76l-.66-2.11h-2.79l-.66 2.11zm3.69-6.73l-1 3.35h2.12l-1-3.35zM353.63 555.08h1.58v1.09h.08a1.68 1.68 0 011.78-1.18 1.71 1.71 0 011.78 1.22h.06a2 2 0 012-1.22 1.91 1.91 0 012.09 2.07v4.54h-1.61v-4c0-.83-.44-1.21-1.11-1.21a1.17 1.17 0 00-1.18 1.3v3.93h-1.55v-4a1.09 1.09 0 00-1.14-1.24 1.14 1.14 0 00-1.15 1.28v4h-1.61zM371.27 558v.69a3 3 0 11-6 0V558a2.84 2.84 0 013-3 2.8 2.8 0 013 3zm-4.27 0v.66c0 .94.42 1.75 1.35 1.75s1.34-.81 1.34-1.75V558c0-1-.44-1.76-1.34-1.76s-1.35.81-1.35 1.76zM379.35 561.6h-1.57v-1.08h-.08a1.93 1.93 0 01-1.92 1.18 2 2 0 01-2.18-2.21v-4.41h1.61v4c0 1 .58 1.25 1.18 1.25a1.3 1.3 0 001.35-1.32v-3.9h1.61zM382 555.08h1.58v1.15h.08a1.85 1.85 0 011.94-1.24 2 2 0 012.17 2.26v4.35h-1.61v-3.88c0-1-.51-1.32-1.17-1.32-.88 0-1.37.63-1.37 1.59v3.61H382zM390.87 553.54h1.57v1.62h1.44v1.28h-1.44v3.09c0 .63.27.83.94.83a4.28 4.28 0 00.56 0v1.24a7.77 7.77 0 01-.95.07c-1.62 0-2.16-.54-2.16-1.88v-3.32h-1v-1.28h1z" fill="#fff"/><path fill="#e8f1ff" d="M37.13 626.32h371.93v1.85H37.13zM37.13 682.21h371.93v1.85H37.13z"/><path d="M51.89 607.71V601h-.08l-1.91 1.34v-1.57l2-1.41h1.64v8.37zM87.89 602a2.47 2.47 0 01-1.52 2.36l1.68 3.35h-1.86l-1.46-3.1h-1.49v3.1h-1.63v-8.37H85c1.81 0 2.89 1.05 2.89 2.66zm-3.21 1.34c.92 0 1.5-.44 1.5-1.31a1.31 1.31 0 00-1.47-1.36h-1.47v2.67zM95.22 604.09v.69a3 3 0 11-6 0v-.7a3 3 0 116 0zm-4.33 0v.67c0 .93.42 1.74 1.36 1.74s1.33-.8 1.33-1.74v-.67c0-1-.44-1.75-1.33-1.75s-1.36.82-1.36 1.78zM99.19 601.07c1.46 0 2.49.7 2.49 1.92h-1.43c0-.38-.39-.77-1.09-.77s-1 .3-1 .77c0 .66 1 .74 1.68.86 1.2.21 2.07.66 2.07 1.84s-1 2.14-2.78 2.14-2.64-.77-2.64-1.93H98c.06.46.42.78 1.14.78s1.15-.36 1.15-.79c0-.61-.77-.69-1.61-.86-1.17-.23-2.12-.64-2.12-1.91.02-1.46 1.25-2.05 2.63-2.05zM103.15 604.82v-.75a2.88 2.88 0 115.76 0v.75h-4.18v.31a1.33 1.33 0 001.38 1.42c.66 0 1.13-.32 1.2-.72h1.54a2.47 2.47 0 01-2.73 2 2.74 2.74 0 01-2.97-3.01zm4.2-1v-.07a1.3 1.3 0 00-1.3-1.43 1.31 1.31 0 00-1.32 1.43v.07zM117.47 607.71h-1.67l-1.26-4.59h-.05l-1.23 4.59h-1.68l-1.75-6.52h1.7l1 4.77h.07l1.21-4.77h1.52l1.23 4.77h.07l1-4.77h1.61zM125.94 604.09v.69a3 3 0 11-6 0v-.7a2.84 2.84 0 013-3 2.81 2.81 0 013 3.01zm-4.33 0v.67c0 .93.43 1.74 1.36 1.74s1.34-.8 1.34-1.74v-.67c0-1-.45-1.75-1.34-1.75s-1.36.82-1.36 1.78zM133.21 604.09v.69a3 3 0 11-6 0v-.7a3 3 0 116 0zm-4.32 0v.67c0 .93.42 1.74 1.35 1.74s1.34-.8 1.34-1.74v-.67c0-1-.44-1.75-1.34-1.75s-1.35.82-1.35 1.78zM138.85 602.18h.08v-3.28h1.62v8.81H139v-1h-.08a1.89 1.89 0 01-1.91 1.12c-1.47 0-2.43-1.07-2.43-2.87V604c0-1.8 1-2.87 2.45-2.87a1.86 1.86 0 011.82 1.05zm-2.65 2v.61c0 1.1.52 1.71 1.35 1.71s1.38-.6 1.38-1.64V604a1.4 1.4 0 00-1.4-1.56c-.82.01-1.33.61-1.33 1.7zM151.54 602.15a2.65 2.65 0 01-2.84 2.79H147v2.77h-1.66v-8.37h3.35a2.67 2.67 0 012.85 2.81zm-3.15-1.44H147v2.89h1.38a1.45 1.45 0 100-2.89zM152.51 605.82c0-1.17.81-2 2.32-2h1.59v-.57c0-.63-.42-.94-1.09-.94s-1 .29-1.05.69h-1.53c.08-1.07.84-2 2.62-2 1.46 0 2.65.59 2.65 2.25v4.37h-1.53v-.82h-.07a1.88 1.88 0 01-1.77.92 1.94 1.94 0 01-2.14-1.9zm3.91-.28v-.67h-1.25c-.71 0-1 .35-1 .84s.51.87 1.06.87a1.13 1.13 0 001.19-1.04zM160.81 598.37a.91.91 0 11-1 .91.92.92 0 011-.91zm-.8 2.82h1.61v6.52H160zM163.67 601.19h1.57v1.15h.08a1.85 1.85 0 011.94-1.25 2 2 0 012.17 2.27v4.35h-1.61v-3.89c0-1-.51-1.32-1.17-1.32-.87 0-1.37.64-1.37 1.6v3.61h-1.61zM171.75 599.65h1.57v1.61h1.45v1.29h-1.45v3.08c0 .64.27.84 1 .84h.56v1.23a6.26 6.26 0 01-1 .07c-1.62 0-2.16-.54-2.16-1.88v-3.31h-1v-1.29h1zM176 604.82v-.75a2.88 2.88 0 115.76 0v.75h-4.17v.31a1.32 1.32 0 001.38 1.42c.66 0 1.12-.32 1.2-.72h1.53a2.47 2.47 0 01-2.73 2 2.75 2.75 0 01-2.97-3.01zm4.2-1v-.07a1.31 1.31 0 10-2.61 0v.07zM187.42 602.18h.07v-3.28h1.62v8.81h-1.59v-1h-.08a1.88 1.88 0 01-1.9 1.12c-1.48 0-2.43-1.07-2.43-2.87V604c0-1.8 1-2.87 2.45-2.87a1.86 1.86 0 011.86 1.05zm-2.66 2v.61c0 1.1.53 1.71 1.36 1.71s1.37-.6 1.37-1.64V604a1.4 1.4 0 00-1.39-1.56c-.82.01-1.34.61-1.34 1.7zM193.93 607.71v-8.37h5.34v1.41h-3.68V603H199v1.38h-3.36v3.3zM200.65 601.19h1.61v1h.08a1.64 1.64 0 011.66-1.09 2.24 2.24 0 01.51 0v1.44a2.66 2.66 0 00-.64-.06 1.39 1.39 0 00-1.57 1.52v3.69h-1.65zM205.92 605.71a1 1 0 011.08 1.07 1.08 1.08 0 11-1.08-1.07zM209.73 605.71a1 1 0 011.08 1.07 1.08 1.08 0 11-1.08-1.07zM230.89 607.71V601h-.08l-1.9 1.34v-1.57l2-1.41h1.65v8.37zM235.68 605.71a1 1 0 011.09 1.07 1.08 1.08 0 11-1.09-1.07zM238.16 603.34c0-2.52 1.2-4.16 3.2-4.16s3.17 1.62 3.17 4.16v.37c0 2.51-1.21 4.16-3.2 4.16s-3.17-1.63-3.17-4.16zm1.66.37c0 1.73.58 2.76 1.53 2.76s1.52-1 1.52-2.76v-.37c0-1.73-.57-2.76-1.52-2.76s-1.53 1-1.53 2.76zM246 603.34c0-2.52 1.2-4.16 3.2-4.16s3.17 1.62 3.17 4.16v.37c0 2.51-1.21 4.16-3.2 4.16s-3.17-1.63-3.17-4.16zm1.66.37c0 1.73.58 2.76 1.53 2.76s1.52-1 1.52-2.76v-.37c0-1.73-.57-2.76-1.52-2.76s-1.53 1-1.53 2.76zM276.54 601.86v-.09a2.61 2.61 0 012.87-2.59c1.73 0 2.86 1 2.86 2.35a3.93 3.93 0 01-1.48 2.66l-1.9 2v.08h3.52v1.4h-5.79v-1.07l3.06-3.27a2.59 2.59 0 00.94-1.68 1.16 1.16 0 00-1.25-1.14 1.2 1.2 0 00-1.26 1.21v.1zM283.83 603.34c0-2.52 1.2-4.16 3.2-4.16s3.17 1.62 3.17 4.16v.37c0 2.51-1.21 4.16-3.2 4.16s-3.17-1.63-3.17-4.16zm1.65.37c0 1.73.59 2.76 1.53 2.76s1.53-1 1.53-2.76v-.37c0-1.73-.58-2.76-1.53-2.76s-1.53 1-1.53 2.76zM291.71 603.34c0-2.52 1.2-4.16 3.2-4.16s3.17 1.62 3.17 4.16v.37c0 2.51-1.21 4.16-3.2 4.16s-3.17-1.63-3.17-4.16zm1.65.37c0 1.73.59 2.76 1.53 2.76s1.53-1 1.53-2.76v-.37c0-1.73-.58-2.76-1.53-2.76s-1.53 1-1.53 2.76zM300.54 605.71a1 1 0 011.09 1.07 1.08 1.08 0 11-1.09-1.07zM303 603.34c0-2.52 1.2-4.16 3.2-4.16s3.17 1.62 3.17 4.16v.37c0 2.51-1.21 4.16-3.2 4.16s-3.17-1.63-3.17-4.16zm1.66.37c0 1.73.58 2.76 1.52 2.76s1.53-1 1.53-2.76v-.37c0-1.73-.58-2.76-1.53-2.76s-1.52 1-1.52 2.76zM310.9 603.34c0-2.52 1.2-4.16 3.2-4.16s3.17 1.62 3.17 4.16v.37c0 2.51-1.21 4.16-3.2 4.16s-3.17-1.63-3.17-4.16zm1.66.37c0 1.73.58 2.76 1.52 2.76s1.53-1 1.53-2.76v-.37c0-1.73-.58-2.76-1.53-2.76s-1.52 1-1.52 2.76zM266.54 717.74a1.84 1.84 0 002 1.3c1.17 0 1.88-.56 1.88-1.43 0-.67-.42-1.06-1.36-1.3l-1.45-.37a2.27 2.27 0 01-2-2.21c0-1.43 1.22-2.43 2.92-2.43a2.63 2.63 0 012.91 2.2h-1.14a1.63 1.63 0 00-1.79-1.2c-1.05 0-1.76.55-1.76 1.37 0 .59.41 1 1.18 1.18l1.43.38c1.47.38 2.18 1.07 2.18 2.29 0 1.52-1.21 2.52-3.14 2.52-1.77 0-2.91-.95-3-2.3zM278.62 719.87h-1.1v-1.08h-.06a1.92 1.92 0 01-1.92 1.18c-1.29 0-2.21-.58-2.21-2.09v-4.47h1.11v4.17a1.26 1.26 0 001.41 1.41 1.59 1.59 0 001.66-1.52v-4.06h1.11zM281.92 718.91h-.05v1h-1.07v-8.82h1.11v3.38h.09a1.87 1.87 0 011.9-1.11c1.52 0 2.47 1.06 2.47 2.77v1.09c0 1.72-1 2.78-2.5 2.78a2 2 0 01-1.95-1.09zm3.3-1.92v-.68c0-1.28-.59-2-1.63-2a1.67 1.67 0 00-1.68 1.89v1.06a1.68 1.68 0 001.71 1.77c1.02-.03 1.6-.77 1.6-2.03zM292.76 719.87v-7.37h-2.52v-1h6.17v1h-2.52v7.37zM302.32 716.16v.94a2.79 2.79 0 11-5.58 0v-.94a2.69 2.69 0 012.8-2.86 2.66 2.66 0 012.78 2.86zm-4.47.09v.75c0 1.19.61 2 1.69 2s1.66-.8 1.66-2v-.78c0-1.17-.62-2-1.66-2a1.76 1.76 0 00-1.69 2.03zM304.54 711.81h1.1v1.62h1.46v.91h-1.46V718c0 .75.26 1 1 1a3.68 3.68 0 00.51 0v.91h-.79c-1.53 0-1.87-.59-1.87-1.86v-3.72h-1v-.91h1zM308.53 718c0-1.13.79-1.9 2.27-1.9h1.69v-.63c0-.83-.52-1.2-1.35-1.2s-1.16.31-1.29.76h-1.07c.1-1.09 1-1.71 2.4-1.71s2.43.57 2.43 2.15v4.41h-1.07V719h-.05a2 2 0 01-1.85 1 1.94 1.94 0 01-2.11-2zm4-.33v-.72h-1.63c-.88 0-1.23.44-1.23 1 0 .74.61 1.08 1.28 1.08a1.44 1.44 0 001.54-1.37zM315.78 711.05h1.11v8.82h-1.11zM291.48 751.09v-6.94h-2.38v-1.43h6.42v1.43h-2.38v6.94zM301.67 747.46v.7a3 3 0 11-5.95 0v-.69a3 3 0 115.95 0zm-4.32 0v.66c0 .94.42 1.75 1.35 1.75s1.34-.8 1.34-1.75v-.66c0-1-.44-1.75-1.34-1.75s-1.35.83-1.35 1.79zM303.72 743h1.58v1.62h1.44v1.28h-1.44v3.1c0 .64.26.83.94.83h.56v1.23a6.15 6.15 0 01-.95.07c-1.62 0-2.16-.54-2.16-1.88v-3.32h-1v-1.28h1zM308 749.2c0-1.17.81-2 2.32-2h1.58v-.57c0-.63-.42-.94-1.08-.94s-1 .29-1.06.69h-1.52c.07-1.07.83-2 2.61-2 1.47 0 2.65.59 2.65 2.25V751H312v-.82h-.08a1.87 1.87 0 01-1.76.92 1.94 1.94 0 01-2.16-1.9zm3.9-.28v-.67h-1.24c-.72 0-1.06.35-1.06.83s.51.88 1.06.88a1.13 1.13 0 001.22-1.04zM315.4 742.27h1.6v8.82h-1.6zM245.85 779.79h3.5c1.49 0 2.47.77 2.47 2.06a1.76 1.76 0 01-1.44 1.82v.08a2 2 0 011.87 2c0 1.5-1.22 2.37-2.92 2.37h-3.48zm1.64 3.46h1.1c1.11 0 1.6-.41 1.6-1.11s-.45-1.08-1.23-1.08h-1.47zm0 3.63h1.24c1.3 0 1.83-.42 1.83-1.2s-.52-1.25-1.5-1.25h-1.57zM253.46 786.27c0-1.17.81-1.95 2.32-1.95h1.59v-.57c0-.63-.43-.94-1.09-.94s-1 .29-1 .69h-1.58c.07-1.07.83-2 2.62-2 1.46 0 2.65.59 2.65 2.25v4.37h-1.53v-.82h-.07a1.9 1.9 0 01-1.77.92 1.94 1.94 0 01-2.14-1.95zm3.91-.28v-.67h-1.25c-.72 0-1.05.35-1.05.83s.51.88 1.06.88a1.14 1.14 0 001.24-1.03zM260.88 779.34h1.62v8.82h-1.62zM264.13 786.27c0-1.17.81-1.95 2.32-1.95H268v-.57c0-.63-.43-.94-1.09-.94s-1 .29-1.06.69h-1.52c.07-1.07.83-2 2.62-2 1.46 0 2.65.59 2.65 2.25v4.37h-1.53v-.82H268a1.9 1.9 0 01-1.77.92 1.94 1.94 0 01-2.1-1.95zM268 786v-.67h-1.25c-.72 0-1.06.35-1.06.83s.51.88 1.07.88A1.14 1.14 0 00268 786zM271.51 781.64h1.57v1.15h.08a1.85 1.85 0 011.94-1.25 2 2 0 012.17 2.26v4.36h-1.61v-3.89c0-.95-.51-1.32-1.17-1.32-.87 0-1.37.64-1.37 1.6v3.61h-1.61zM278.86 784.48a2.74 2.74 0 012.89-3 2.41 2.41 0 012.69 2.31H283a1.07 1.07 0 00-1.15-1c-.85 0-1.32.64-1.32 1.64v.76c0 1 .49 1.68 1.32 1.68s1.1-.38 1.17-.92h1.5c0 1.28-.94 2.25-2.72 2.25a2.72 2.72 0 01-2.89-3zM285.7 785.27v-.75a2.88 2.88 0 115.76 0v.74h-4.17v.32a1.31 1.31 0 001.38 1.41c.66 0 1.12-.31 1.2-.71h1.53a2.46 2.46 0 01-2.73 2 2.74 2.74 0 01-2.97-3.01zm4.2-1v-.06a1.31 1.31 0 10-2.61 0v.06zM299 779.79c2.55 0 3.75 1.52 3.75 4.16s-1.22 4.21-3.75 4.21h-3.05v-8.37zm-1.39 7h1.17c1.56 0 2.27-.91 2.27-2.77s-.71-2.8-2.27-2.8h-1.17zM310 788.16h-1.58v-1.09h-.08a1.91 1.91 0 01-1.92 1.19 2 2 0 01-2.17-2.22v-4.4h1.61v4a1.09 1.09 0 001.18 1.25 1.31 1.31 0 001.35-1.33v-3.89H310zM311.63 785.27v-.75a2.88 2.88 0 115.76 0v.74h-4.18v.32a1.31 1.31 0 001.38 1.41c.66 0 1.13-.31 1.2-.71h1.54a2.46 2.46 0 01-2.73 2 2.74 2.74 0 01-2.97-3.01zm4.19-1v-.06a1.31 1.31 0 10-2.61 0v.06zM351.41 601.86v-.09a2.61 2.61 0 012.87-2.59c1.73 0 2.86 1 2.86 2.35a3.93 3.93 0 01-1.48 2.66l-1.9 2v.08h3.52v1.4h-5.79v-1.07l3.06-3.27a2.59 2.59 0 00.94-1.68 1.16 1.16 0 00-1.25-1.14 1.2 1.2 0 00-1.26 1.21v.1zM358.7 603.34c0-2.52 1.2-4.16 3.2-4.16s3.16 1.62 3.16 4.16v.37c0 2.51-1.2 4.16-3.19 4.16s-3.17-1.63-3.17-4.16zm1.65.37c0 1.73.59 2.76 1.53 2.76s1.53-1 1.53-2.76v-.37c0-1.73-.58-2.76-1.53-2.76s-1.53 1-1.53 2.76zM366.58 603.34c0-2.52 1.2-4.16 3.2-4.16s3.16 1.62 3.16 4.16v.37c0 2.51-1.2 4.16-3.19 4.16s-3.17-1.63-3.17-4.16zm1.65.37c0 1.73.59 2.76 1.53 2.76s1.53-1 1.53-2.76v-.37c0-1.73-.58-2.76-1.53-2.76s-1.53 1-1.53 2.76zM375.41 605.71a1 1 0 011.08 1.07 1.08 1.08 0 11-1.08-1.07zM377.89 603.34c0-2.52 1.2-4.16 3.2-4.16s3.17 1.62 3.17 4.16v.37c0 2.51-1.21 4.16-3.2 4.16s-3.17-1.63-3.17-4.16zm1.66.37c0 1.73.58 2.76 1.52 2.76s1.53-1 1.53-2.76v-.37c0-1.73-.58-2.76-1.53-2.76s-1.52 1-1.52 2.76zM385.77 603.34c0-2.52 1.2-4.16 3.2-4.16s3.17 1.62 3.17 4.16v.37c0 2.51-1.21 4.16-3.2 4.16s-3.17-1.63-3.17-4.16zm1.66.37c0 1.73.58 2.76 1.52 2.76s1.53-1 1.53-2.76v-.37c0-1.73-.58-2.76-1.53-2.76s-1.52 1-1.52 2.76zM352.68 716.76a2.14 2.14 0 011.69-2.11 1.94 1.94 0 01-1.36-1.87 2.7 2.7 0 015.31 0 2 2 0 01-1.32 1.82 2.13 2.13 0 011.69 2.1c0 1.46-1.25 2.47-3 2.47s-3.01-.95-3.01-2.41zm4.86 0a1.91 1.91 0 10-1.87 1.57 1.69 1.69 0 001.87-1.62zm-.32-3.89a1.4 1.4 0 00-1.55-1.37 1.42 1.42 0 00-1.57 1.37 1.44 1.44 0 001.57 1.4 1.42 1.42 0 001.55-1.45zM365.14 710.67v5.67h1.08v1h-1.08v1.72h-1.08v-1.72H360v-1c1-1.89 2.29-3.77 3.48-5.66zm-1.08 5.67v-4.69H364c-1 1.46-2 3.1-2.88 4.63v.06zM367.57 714.71c0-2.54 1.1-4.21 3-4.21s3 1.66 3 4.21v.29c0 2.54-1.09 4.2-3 4.2s-3-1.66-3-4.2zm1.12.3c0 2 .73 3.22 1.87 3.22s1.87-1.22 1.87-3.22v-.3c0-2-.71-3.22-1.87-3.22s-1.87 1.23-1.87 3.22zM376 717.39a.86.86 0 01.89.89.89.89 0 01-1.77 0 .87.87 0 01.88-.89zM378.43 714.71c0-2.54 1.1-4.21 3-4.21s3 1.66 3 4.21v.29c0 2.54-1.09 4.2-3 4.2s-3-1.66-3-4.2zm1.12.3c0 2 .72 3.22 1.87 3.22s1.87-1.22 1.87-3.22v-.3c0-2-.72-3.22-1.87-3.22s-1.87 1.23-1.87 3.22zM386.07 714.71c0-2.54 1.1-4.21 3-4.21s3 1.66 3 4.21v.29c0 2.54-1.09 4.2-3 4.2s-3-1.66-3-4.2zm1.13.3c0 2 .72 3.22 1.87 3.22s1.87-1.22 1.87-3.22v-.3c0-2-.72-3.22-1.87-3.22s-1.87 1.23-1.87 3.22zM351 749.7a2.09 2.09 0 011.76-2.09v-.07a1.88 1.88 0 01-1.43-1.86c0-1.28 1.16-2.21 2.92-2.21s2.9.93 2.9 2.21a1.89 1.89 0 01-1.42 1.86v.07a2.09 2.09 0 011.76 2.08c0 1.46-1.3 2.47-3.26 2.47s-3.23-1.01-3.23-2.46zm4.84-.13a1.62 1.62 0 10-1.59 1.35 1.44 1.44 0 001.54-1.35zm-.27-3.69a1.34 1.34 0 00-2.65 0 1.33 1.33 0 002.65 0zM364.29 743.63v5.45h1v1.39h-1V752h-1.55v-1.53h-4.06v-1.4c1-1.84 2.13-3.64 3.22-5.44zm-1.55 5.45v-4.17h-.09c-.84 1.32-1.71 2.72-2.46 4.13zM366.58 747.62c0-2.51 1.2-4.15 3.2-4.15s3.16 1.61 3.16 4.15v.38c0 2.51-1.2 4.16-3.19 4.16s-3.17-1.63-3.17-4.16zm1.65.37c0 1.74.59 2.76 1.53 2.76s1.53-1 1.53-2.76v-.36c0-1.73-.58-2.76-1.53-2.76s-1.53 1-1.53 2.76zM375.41 750a1 1 0 011.08 1.07 1.08 1.08 0 11-1.08-1.07zM377.89 747.62c0-2.51 1.2-4.15 3.2-4.15s3.17 1.61 3.17 4.15v.38c0 2.51-1.21 4.16-3.2 4.16s-3.17-1.63-3.17-4.16zm1.66.37c0 1.74.58 2.76 1.52 2.76s1.53-1 1.53-2.76v-.36c0-1.73-.58-2.76-1.53-2.76s-1.52 1-1.52 2.76zM385.77 747.62c0-2.51 1.2-4.15 3.2-4.15s3.17 1.61 3.17 4.15v.38c0 2.51-1.21 4.16-3.2 4.16s-3.17-1.63-3.17-4.16zm1.66.37c0 1.74.58 2.76 1.52 2.76s1.53-1 1.53-2.76v-.36c0-1.73-.58-2.76-1.53-2.76s-1.52 1-1.52 2.76zM347.54 782.86c1.28.29 2.11.89 2.11 2.24s-1 2.34-2.74 2.46v.91h-.71v-.91c-1.78-.11-2.64-1.13-2.71-2.3H345a1.33 1.33 0 001.21 1v-2.2l-.53-.12a2.19 2.19 0 01-2-2.18 2.47 2.47 0 012.53-2.38v-.9h.71v.9a2.52 2.52 0 012.63 2.23h-1.48a1.23 1.23 0 00-1.15-1v2.06zm-1.34-2.18a1.06 1.06 0 00-1 1c0 .45.36.74 1 .9zm.71 5.61c.79-.08 1.21-.49 1.21-1s-.39-.82-1.21-1zM351 785.37a2.08 2.08 0 011.76-2.08v-.07a1.89 1.89 0 01-1.43-1.86c0-1.28 1.16-2.22 2.92-2.22s2.9.94 2.9 2.22a1.9 1.9 0 01-1.42 1.86v.07a2.08 2.08 0 011.76 2.08c0 1.45-1.3 2.46-3.26 2.46s-3.23-1-3.23-2.46zm4.84-.12a1.62 1.62 0 10-1.59 1.35 1.43 1.43 0 001.54-1.35zm-.27-3.7a1.34 1.34 0 00-2.65 0 1.33 1.33 0 002.65 0zM364.29 779.3v5.46h1v1.39h-1v1.52h-1.55v-1.52h-4.06v-1.41c1-1.83 2.13-3.64 3.22-5.44zm-1.55 5.46v-4.17h-.09c-.84 1.32-1.71 2.72-2.46 4.13zM366.58 783.3c0-2.51 1.2-4.16 3.2-4.16s3.16 1.62 3.16 4.16v.37c0 2.51-1.2 4.16-3.19 4.16s-3.17-1.62-3.17-4.16zm1.65.37c0 1.73.59 2.76 1.53 2.76s1.53-1 1.53-2.76v-.36c0-1.73-.58-2.76-1.53-2.76s-1.53 1-1.53 2.76zM375.41 785.67a1.07 1.07 0 110 2.13 1.07 1.07 0 110-2.13zM377.89 783.3c0-2.51 1.2-4.16 3.2-4.16s3.17 1.62 3.17 4.16v.37c0 2.51-1.21 4.16-3.2 4.16s-3.17-1.62-3.17-4.16zm1.66.37c0 1.73.58 2.76 1.52 2.76s1.53-1 1.53-2.76v-.36c0-1.73-.58-2.76-1.53-2.76s-1.52 1-1.52 2.76zM385.77 783.3c0-2.51 1.2-4.16 3.2-4.16s3.17 1.62 3.17 4.16v.37c0 2.51-1.21 4.16-3.2 4.16s-3.17-1.62-3.17-4.16zm1.65.37c0 1.73.59 2.76 1.53 2.76s1.53-1 1.53-2.76v-.36c0-1.73-.58-2.76-1.53-2.76s-1.53 1-1.53 2.76z"/><path d="M54.84 177.13l7.61-10.82v-.16h-7.4v-2.65h11.18v2.11l-7.58 10.82v.16h7.81v2.65H54.84z" fill="#fff"/><path d="M51.26 232v7.1h1.39v1h-1.39v2.24H50.2v-2.24h-5v-1c1.16-2.06 3.13-5 4.44-7.1zm-1.06 7.1V233h-.07c-1.09 1.62-2.84 4.34-3.81 6v.06zM60.1 234.05a1.88 1.88 0 00-2-1.26c-1.6 0-2.65 1.57-2.67 4.57h.06a2.73 2.73 0 012.72-1.68 3.18 3.18 0 013.24 3.32 3.29 3.29 0 01-3.45 3.55 3.19 3.19 0 01-2.93-1.64 6.51 6.51 0 01-.69-3.28c0-3.87 1.47-5.82 3.79-5.82 1.86 0 3 1.15 3.08 2.24zm-2.1 7.53a2.44 2.44 0 000-4.88 2.3 2.3 0 00-2.38 2.38 2.35 2.35 0 002.38 2.5zM63.48 237c0-3.16 1.33-5.21 3.61-5.21s3.59 2 3.59 5.21v.4c0 3.15-1.32 5.18-3.6 5.18s-3.6-2-3.6-5.18zm1.09.39c0 2.63 1 4.21 2.51 4.21s2.5-1.58 2.5-4.21V237c0-2.62-1-4.22-2.5-4.22s-2.51 1.6-2.51 4.22zM78.54 234.05a1.88 1.88 0 00-2-1.26c-1.6 0-2.66 1.57-2.67 4.57h.06a2.72 2.72 0 012.71-1.68 3.18 3.18 0 013.25 3.32 3.29 3.29 0 01-3.47 3.52 3.18 3.18 0 01-2.93-1.64 6.5 6.5 0 01-.7-3.28c0-3.87 1.48-5.82 3.8-5.82 1.86 0 3 1.15 3.08 2.24zm-2.12 7.53a2.44 2.44 0 000-4.88 2.3 2.3 0 00-2.38 2.38 2.34 2.34 0 002.38 2.5zM85.87 232h3.74c1.76 0 2.87 1 2.87 2.54a2.25 2.25 0 01-1.66 2.3v.06a2.42 2.42 0 012.26 2.56c0 1.79-1.35 2.88-3.59 2.88h-3.62zm1.13 4.52h1.78c1.73 0 2.59-.56 2.59-1.79s-.73-1.73-1.93-1.73H87zm0 4.81h2c2.08 0 3-.56 3-1.84s-.88-2-2.3-2H87zM95 239v-1.23a3.22 3.22 0 116.42 0v.89h-5.33v.41a2.17 2.17 0 002.2 2.43 1.79 1.79 0 001.85-1.05h1.16a2.8 2.8 0 01-3 2A3.14 3.14 0 0195 239zm5.32-1.2v-.13a2.13 2.13 0 10-4.22 0v.13zM103.78 234.4h1.09v1.48h.06a2.28 2.28 0 012.44-1.61 2.46 2.46 0 012.72 2.65v5.42H109v-5.07a1.77 1.77 0 00-1.86-2c-1.53 0-2.26 1.18-2.26 2.62v4.47h-1.09zM115.31 234.27c1.73 0 2.77.95 2.77 2.18h-1c0-.58-.58-1.25-1.78-1.25-1 0-1.74.45-1.74 1.3s1 1.15 2 1.34c1.49.29 2.77.66 2.77 2.21s-1.29 2.42-3.07 2.42-2.92-.82-2.92-2.18h1.08c.1.73.61 1.27 1.88 1.27s1.94-.59 1.94-1.38c0-1-.91-1.15-2-1.38-1.51-.32-2.7-.65-2.7-2.18s1.27-2.35 2.77-2.35zM126.92 237.75V239a3.35 3.35 0 11-6.7 0v-1.25a3.35 3.35 0 116.7 0zm-5.61.13v1c0 1.63.87 2.62 2.27 2.62s2.24-1 2.24-2.62v-1c0-1.6-.89-2.63-2.24-2.63s-2.27 1.03-2.27 2.63zM129.33 234.4h1.09v1.48h.06a2.29 2.29 0 012.44-1.61 2.46 2.46 0 012.72 2.65v5.42h-1.1v-5.07a1.77 1.77 0 00-1.86-2c-1.53 0-2.26 1.18-2.26 2.62v4.47h-1.09zM148.91 235.16a3 3 0 01-3.26 3.16h-2.54v4H142V232h3.64a3 3 0 013.27 3.16zm-3.3-2.15h-2.5v4.3h2.5a2.15 2.15 0 000-4.3zM150.39 240c0-1.36 1-2.3 2.77-2.3h2.17v-.86c0-1.12-.71-1.63-1.82-1.63s-1.57.46-1.73 1h-1.07c.12-1.29 1.19-2 2.85-2s2.88.72 2.88 2.59v5.48h-1.06v-1.11h-.06a2.56 2.56 0 01-2.33 1.24 2.38 2.38 0 01-2.6-2.41zm4.94-.42v-1h-2.14c-1.18 0-1.66.59-1.66 1.36a1.52 1.52 0 001.72 1.48 1.94 1.94 0 002.08-1.8zM159.32 234.4h1.09v1.28h.06a2.17 2.17 0 012.24-1.4 3.9 3.9 0 01.5 0v1a4.73 4.73 0 00-.63 0 2 2 0 00-2.17 2v5h-1.09zM166.2 242.34h-1.1v-10.9h1.1v6.65l3.49-3.69H171l-3.22 3.43 3.42 4.51h-1.32l-2.88-3.81-.82.8zM179.81 232c3 0 4.54 1.8 4.54 5.17s-1.52 5.17-4.54 5.17h-3.17V232zm-2.07 9.33h2c2.32 0 3.44-1.42 3.44-4.16s-1.14-4.16-3.44-4.16h-2zM186.81 234.4h1.1v1.28h.09a2.19 2.19 0 012.24-1.4 3.75 3.75 0 01.5 0v1a4.44 4.44 0 00-.62 0 2 2 0 00-2.17 2v5h-1.1zM193.31 231.1a.85.85 0 110 1.69.85.85 0 010-1.69zm-.54 3.3h1.09v7.94h-1.09zM196 234.4h1.22l2.14 6.75h.06l2.26-6.75h1.18l-2.91 7.94h-1.1zM204.15 239v-1.23a3.22 3.22 0 116.42 0v.89h-5.32v.41a2.17 2.17 0 002.2 2.43 1.77 1.77 0 001.84-1.05h1.16a2.79 2.79 0 01-3 2 3.14 3.14 0 01-3.3-3.45zm5.32-1.2v-.13a2.13 2.13 0 10-4.22 0v.13zM52.75 260.14a2.86 2.86 0 01-2 2.87l2.16 4.45h-1.25l-2-4.22H47v4.22h-1.1v-10.34h3.63a2.93 2.93 0 013.22 3.02zm-3.44 2.09c1.49 0 2.3-.71 2.3-2a2 2 0 00-2.25-2.09H47v4.1zM61.56 262.87v1.25a3.35 3.35 0 11-6.7 0v-1.25a3.35 3.35 0 116.7 0zM56 263v1c0 1.63.86 2.62 2.26 2.62s2.24-1 2.24-2.62v-1c0-1.59-.89-2.62-2.24-2.62S56 261.4 56 263zM66.44 259.39c1.73 0 2.77.95 2.77 2.18h-1c0-.58-.58-1.25-1.78-1.25-1 0-1.74.45-1.74 1.3s1 1.16 2 1.34c1.49.28 2.77.66 2.77 2.21s-1.29 2.42-3.07 2.42-2.91-.82-2.91-2.18h1.02c.1.73.62 1.27 1.88 1.27s1.94-.59 1.94-1.38c0-1-.91-1.15-2-1.38-1.5-.32-2.7-.65-2.7-2.18s1.32-2.35 2.82-2.35zM71.35 264.12v-1.23a3.22 3.22 0 116.42 0v.89h-5.32v.41a2.17 2.17 0 002.2 2.43 1.77 1.77 0 001.84-1.05h1.16a2.79 2.79 0 01-3 2 3.13 3.13 0 01-3.3-3.45zm5.32-1.2v-.13a2.13 2.13 0 10-4.22 0v.13zM85.19 260.75h.06v-4.19h1.1v10.9h-1v-1.31a2.45 2.45 0 01-2.44 1.43 3 3 0 01-3.07-3.27v-1.63a3 3 0 013.1-3.29 2.38 2.38 0 012.25 1.36zM80.84 263v1c0 1.63.84 2.59 2.18 2.59a2.21 2.21 0 002.23-2.46v-1.47a2.21 2.21 0 00-2.25-2.29c-1.32 0-2.16.94-2.16 2.63zM88.7 265.16c0-1.36 1-2.3 2.77-2.3h2.16V262c0-1.12-.71-1.63-1.82-1.63s-1.57.46-1.73 1H89c.12-1.29 1.19-2 2.86-2s2.87.72 2.87 2.59v5.48h-1.05v-1.11h-.05a2.58 2.58 0 01-2.34 1.24 2.38 2.38 0 01-2.59-2.41zm4.93-.42v-1h-2.14c-1.18 0-1.66.59-1.66 1.36 0 1 .81 1.48 1.73 1.48a1.94 1.94 0 002.07-1.84zM97.56 256.56h1.1v10.9h-1.1zM101.13 264.12v-1.23a3.22 3.22 0 116.41 0v.89h-5.32v.41a2.17 2.17 0 002.2 2.43 1.79 1.79 0 001.85-1.05h1.16a2.79 2.79 0 01-3 2 3.13 3.13 0 01-3.3-3.45zm5.31-1.2v-.13a2.13 2.13 0 10-4.22 0v.13zM109.33 270.15l.72-4.24h1.34l-1 4.24zM49.53 292.8c-2.47 0-4.06-1.69-4.06-4.59v-1.6c0-2.91 1.59-4.6 4.06-4.6s4.07 1.69 4.07 4.6v1.6c0 2.9-1.6 4.59-4.07 4.59zm0-9.77c-1.7 0-3 1.2-3 3.57v1.62c0 2.37 1.25 3.57 3 3.57s3-1.2 3-3.57v-1.62c-.03-2.37-1.3-3.6-3-3.6zM57.2 292.58h-1.09v-10.9h1.09v6.65l3.49-3.69H62l-3.22 3.43 3.42 4.51h-1.29L58 288.77l-.82.8zM64.05 281.68h1.1v10.9h-1.1zM67.53 290.28c0-1.36 1-2.3 2.77-2.3h2.17v-.86c0-1.12-.71-1.63-1.82-1.63s-1.57.46-1.74 1h-1.07c.13-1.29 1.19-2 2.86-2s2.88.72 2.88 2.59v5.48h-1.07v-1.11h-.05a2.57 2.57 0 01-2.33 1.24 2.38 2.38 0 01-2.6-2.41zm4.94-.42v-1h-2.15c-1.17 0-1.65.59-1.65 1.36a1.52 1.52 0 001.72 1.48 1.94 1.94 0 002.08-1.84zM76.36 281.68h1.09v4.44h.06a2.42 2.42 0 012.49-1.61 2.47 2.47 0 012.68 2.66v5.41H81.6v-5.06a1.8 1.8 0 00-1.9-2c-1.49 0-2.25 1.18-2.25 2.62v4.47h-1.09zM91.77 288v1.26a3.35 3.35 0 11-6.69 0V288a3.24 3.24 0 013.35-3.47 3.21 3.21 0 013.34 3.47zm-5.6.13v1c0 1.63.86 2.62 2.27 2.62s2.23-1 2.23-2.62v-1c0-1.59-.88-2.62-2.23-2.62a2.32 2.32 0 00-2.27 2.6zM94.18 284.64h1.1v1.27h.06a2 2 0 012.16-1.4 2.16 2.16 0 012.23 1.49 2.45 2.45 0 012.43-1.53 2.33 2.33 0 012.61 2.49v5.58h-1.09v-5.24a1.65 1.65 0 00-1.78-1.81 1.89 1.89 0 00-1.9 2v5.11h-1v-5.23a1.72 1.72 0 00-1.81-1.86 1.85 1.85 0 00-1.86 2v5.1h-1.1zM107.11 290.28c0-1.36 1-2.3 2.77-2.3h2.17v-.86c0-1.12-.71-1.63-1.82-1.63s-1.57.46-1.74 1h-1.07c.12-1.29 1.19-2 2.86-2s2.88.72 2.88 2.59v5.48h-1.07v-1.11a2.57 2.57 0 01-2.33 1.24 2.38 2.38 0 01-2.65-2.41zm4.94-.42v-1h-2.15c-1.17 0-1.65.59-1.65 1.36a1.52 1.52 0 001.72 1.48 1.94 1.94 0 002.08-1.84zM125.36 282.24v1l-4.28 9.3h-1.17l4.32-9.27v-.08h-5.3v-1zM129.31 286.75h1a1.93 1.93 0 002.06-1.93 1.87 1.87 0 00-2-1.83 1.85 1.85 0 00-2 1.54h-1.08a2.79 2.79 0 013.08-2.52c1.92 0 3.15 1.15 3.19 2.63a2.5 2.5 0 01-1.95 2.51v.07a2.56 2.56 0 012.31 2.52c0 1.76-1.44 3.07-3.57 3.07s-3.24-1.13-3.31-2.57h1c.09.89 1 1.58 2.3 1.59a2.13 2.13 0 002.4-2.08 2.11 2.11 0 00-2.35-2h-1.11zM135.94 287.22c0-3.15 1.34-5.21 3.62-5.21s3.59 2.05 3.59 5.21v.4c0 3.15-1.33 5.18-3.6 5.18s-3.61-2-3.61-5.18zm1.1.39c0 2.63 1 4.21 2.51 4.21s2.5-1.58 2.5-4.21v-.39c0-2.62-1-4.23-2.5-4.23s-2.55 1.61-2.55 4.23zM145.17 289.78a2.68 2.68 0 012.11-2.63v-.07a2.39 2.39 0 01-1.7-2.31 3.2 3.2 0 016.34 0 2.41 2.41 0 01-1.71 2.31v.07a2.68 2.68 0 012.11 2.62c0 1.8-1.53 3-3.6 3s-3.55-1.2-3.55-2.99zm6.07 0a2.53 2.53 0 10-2.49 2.1 2.24 2.24 0 002.49-2.14zm-.4-4.91a2.11 2.11 0 00-4.19 0 2.11 2.11 0 004.19 0zM160.1 284.28a1.89 1.89 0 00-2-1.25c-1.6 0-2.65 1.57-2.66 4.57h.06a2.72 2.72 0 012.71-1.68 3.18 3.18 0 013.24 3.31 3.29 3.29 0 01-3.47 3.52 3.18 3.18 0 01-2.93-1.64 6.52 6.52 0 01-.7-3.29c0-3.86 1.48-5.81 3.8-5.81 1.86 0 3 1.15 3.08 2.23zm-2.1 7.54a2.44 2.44 0 000-4.88 2.3 2.3 0 00-2.38 2.38 2.35 2.35 0 002.38 2.5zM52.34 314.13v-6.77h1.11v6.77a3.6 3.6 0 01-3.85 3.79 3.6 3.6 0 01-3.85-3.79v-6.77h1.1v6.77a2.75 2.75 0 105.49 0zM57 315.9a1 1 0 110 1.93 1 1 0 010-1.93zM61 315.14a2.43 2.43 0 002.65 1.77c1.53 0 2.5-.76 2.5-2 0-.93-.57-1.45-1.82-1.77l-1.77-.48a2.75 2.75 0 01-2.35-2.66c0-1.7 1.44-2.92 3.5-2.92s3.33 1.09 3.48 2.64H66a2.15 2.15 0 00-2.36-1.63c-1.4 0-2.35.76-2.35 1.88 0 .82.55 1.36 1.56 1.63l1.74.47c1.85.5 2.7 1.32 2.7 2.79 0 1.84-1.5 3-3.79 3-2.13 0-3.5-1.18-3.65-2.78zM70.42 315.9a1 1 0 110 1.93 1 1 0 010-1.93zM73 317.7l3.72-10.34h1.08l3.72 10.34h-1.13l-1.1-3.23h-4l-1.1 3.23zm4.23-9l-1.65 4.82H79l-1.65-4.82zM84.3 315.9a1 1 0 110 1.93 1 1 0 010-1.93zM47.51 429.53h1a1.93 1.93 0 002.06-1.93 2.08 2.08 0 00-4.07-.29h-1.03c0-1.21 1.06-2.51 3.08-2.52s3.15 1.15 3.19 2.63a2.5 2.5 0 01-2 2.51v.07a2.56 2.56 0 012.31 2.51c0 1.76-1.44 3.07-3.57 3.07s-3.25-1.12-3.31-2.56h1.05c.09.88 1 1.58 2.3 1.59a2.14 2.14 0 002.4-2.08 2.11 2.11 0 00-2.36-2h-1.1zM60.41 425v1l-4.29 9.31H55l4.32-9.28V426H54v-1zM62.21 432.55a2.65 2.65 0 012.1-2.62v-.07a2.41 2.41 0 01-1.7-2.31 3.21 3.21 0 016.35 0 2.42 2.42 0 01-1.72 2.31v.07a2.66 2.66 0 012.11 2.61c0 1.8-1.53 3-3.6 3s-3.54-1.19-3.54-2.99zm6.06 0a2.53 2.53 0 10-2.48 2.1 2.24 2.24 0 002.48-2.14zm-.4-4.9a1.88 1.88 0 00-2.08-1.84 1.9 1.9 0 00-2.11 1.84 1.92 1.92 0 002.11 1.86 1.9 1.9 0 002.08-1.9zM74 435.36v-9.1L71.53 428v-1.17L74 425h1.09v10.35zM85.89 435.58c-2.47 0-4.07-1.69-4.07-4.59v-1.61c0-2.9 1.6-4.59 4.07-4.59s4.07 1.69 4.07 4.6V431c.04 2.89-1.59 4.58-4.07 4.58zm0-9.78c-1.7 0-3 1.21-3 3.57V431c0 2.36 1.25 3.57 3 3.57s3-1.21 3-3.57v-1.63c-.04-2.37-1.3-3.57-3-3.57zM92.49 424.46h1.1v10.9h-1.1zM96.06 432v-1.23a3.22 3.22 0 116.42 0v.89h-5.32v.42a2.17 2.17 0 002.2 2.43 1.78 1.78 0 001.84-1h1.17a2.81 2.81 0 01-3 2 3.14 3.14 0 01-3.31-3.51zm5.32-1.19v-.13a2.13 2.13 0 10-4.22 0v.13zM104.85 427.42h1.09v1.48h.06a2.27 2.27 0 012.44-1.61 2.46 2.46 0 012.72 2.65v5.42h-1.1v-5.08a1.76 1.76 0 00-1.86-2c-1.53 0-2.26 1.18-2.26 2.61v4.48h-1.09zM119.6 435.36V426h-3.21v-1h7.54v1h-3.21v9.34zM125.71 424.46h1.09v4.44h.06a2.4 2.4 0 012.5-1.61 2.48 2.48 0 012.69 2.66v5.41H131v-5.06a1.81 1.81 0 00-1.9-2c-1.49 0-2.25 1.17-2.25 2.61v4.48h-1.09zM141.12 430.76V432a3.35 3.35 0 11-6.7 0v-1.25a3.35 3.35 0 116.7 0zm-5.61.13v1c0 1.62.87 2.62 2.27 2.62s2.24-1 2.24-2.62v-1c0-1.59-.89-2.62-2.24-2.62a2.32 2.32 0 00-2.27 2.62zM143.53 427.42h1.09v1.27h.06a2 2 0 012.16-1.4 2.17 2.17 0 012.24 1.52 2.45 2.45 0 012.42-1.52 2.34 2.34 0 012.62 2.49v5.58h-1.09v-5.29a1.65 1.65 0 00-1.78-1.8 1.89 1.89 0 00-1.9 2v5.11h-1.1v-5.24a1.71 1.71 0 00-1.81-1.85 1.85 1.85 0 00-1.87 2v5.11h-1.09zM156.46 433.06c0-1.37.95-2.31 2.76-2.31h2.17v-.85c0-1.12-.71-1.63-1.82-1.63s-1.57.45-1.73 1h-1.07c.12-1.29 1.19-2 2.86-2s2.87.71 2.87 2.58v5.49h-1.06v-1.11h-.05a2.58 2.58 0 01-2.34 1.24 2.38 2.38 0 01-2.59-2.41zm4.93-.42v-1h-2.14c-1.18 0-1.65.59-1.65 1.37a1.52 1.52 0 001.72 1.48 2 2 0 002.07-1.85zM167.73 427.29c1.74 0 2.77.95 2.77 2.18h-1c0-.58-.58-1.26-1.78-1.26-1 0-1.74.46-1.74 1.31s1 1.15 2 1.34c1.49.28 2.77.65 2.77 2.21s-1.29 2.42-3.07 2.42-2.91-.82-2.91-2.18h1.07c.1.73.62 1.27 1.88 1.27s1.94-.6 1.94-1.38c0-1-.91-1.16-2-1.38-1.5-.32-2.69-.66-2.69-2.18s1.26-2.35 2.76-2.35zM179.81 425c3 0 4.55 1.8 4.55 5.18s-1.52 5.17-4.55 5.17h-3.17V425zm-2.06 9.33h2c2.32 0 3.43-1.41 3.43-4.15s-1.13-4.17-3.43-4.17h-2zM186.82 427.42h1.09v1.27h.09a2.18 2.18 0 012.24-1.39h.5v1a3.48 3.48 0 00-.63 0 2 2 0 00-2.17 2v5h-1.09zM193.32 424.12a.84.84 0 11-.84.85.83.83 0 01.84-.85zm-.54 3.3h1.09v7.94h-1.09zM196 427.42h1.22l2.14 6.75h.05l2.27-6.75h1.18l-2.91 7.94h-1.1zM204.16 432v-1.23a3.22 3.22 0 116.42 0v.89h-5.32v.42a2.17 2.17 0 002.2 2.43 1.78 1.78 0 001.84-1h1.16a2.79 2.79 0 01-3 2 3.14 3.14 0 01-3.3-3.51zm5.32-1.19v-.13a2.13 2.13 0 10-4.22 0v.13zM47.57 460.48l-2.85-10.35H46l2 8.6h.06l2.18-8.6h1.16l2.17 8.6h.06l2-8.6h1.32l-2.75 10.35h-1L50.91 452l-2.29 8.52zM59.81 449.24a.84.84 0 11-.84.85.82.82 0 01.84-.85zm-.54 3.3h1.09v7.94h-1.09zM63 455.81a3.09 3.09 0 013.23-3.4c2 0 2.94 1.23 3 2.33h-1.15a1.68 1.68 0 00-1.86-1.33c-1.41 0-2.16.95-2.16 2.46v1.32a2.13 2.13 0 002.16 2.42c1.29 0 1.76-.61 1.92-1.23h1.09c-.06 1.06-1 2.23-3 2.23a3.09 3.09 0 01-3.23-3.42zM71.52 449.58h1.09V454h.06a2.41 2.41 0 012.5-1.61 2.48 2.48 0 012.69 2.66v5.41h-1.1v-5.06a1.8 1.8 0 00-1.9-2c-1.49 0-2.25 1.17-2.25 2.61v4.48h-1.09zM81.36 449.24a.84.84 0 11-.84.85.82.82 0 01.84-.85zm-.54 3.3h1.09v7.94h-1.09zM85.32 450.55h1.09v2h1.87v.91h-1.87v4.93c0 1 .32 1.23 1.34 1.23a6 6 0 00.65 0v.92a7.13 7.13 0 01-.91.06c-1.81 0-2.17-.7-2.17-2.23v-4.87h-1.27v-.91h1.27zM90.11 458.18c0-1.37 1-2.31 2.77-2.31h2.17V455c0-1.12-.71-1.63-1.82-1.63s-1.57.45-1.74 1h-1.06c.12-1.29 1.19-2 2.85-2s2.88.71 2.88 2.58v5.49H95.1v-1.11H95a2.56 2.56 0 01-2.33 1.24 2.39 2.39 0 01-2.56-2.39zm4.94-.43v-1h-2.14c-1.18 0-1.66.59-1.66 1.37a1.52 1.52 0 001.75 1.52 2 2 0 002.05-1.89zM102.54 460.48v-10.35h6v1h-4.89v3.73h4.49v1h-4.49v4.59zM110 458.18c0-1.37 1-2.31 2.77-2.31h2.17V455c0-1.12-.71-1.63-1.82-1.63s-1.57.45-1.74 1h-1.07c.13-1.29 1.19-2 2.86-2s2.88.71 2.88 2.58v5.49H115v-1.11h-.06a2.56 2.56 0 01-2.33 1.24 2.39 2.39 0 01-2.61-2.39zm4.94-.43v-1h-2.15c-1.17 0-1.65.59-1.65 1.37a1.52 1.52 0 001.72 1.48 2 2 0 002.06-1.85zM118.84 449.58h1.1v10.9h-1.1zM122.85 449.58H124v10.9h-1.1zM129.28 452.41c1.73 0 2.77.95 2.77 2.17h-1c0-.57-.58-1.25-1.78-1.25-1 0-1.73.46-1.73 1.31s1 1.15 2 1.34c1.49.28 2.77.65 2.77 2.21s-1.29 2.42-3.07 2.42-2.91-.82-2.91-2.18h1.08c.1.73.61 1.27 1.88 1.27s1.93-.6 1.93-1.38c0-1-.91-1.16-2-1.38-1.5-.32-2.69-.66-2.69-2.18s1.25-2.35 2.75-2.35zM133.85 463.16l.71-4.23h1.35l-1 4.23zM48 485.6v-9.34h-3.26v-1h7.54v1h-3.21v9.34zM57.93 480.48l3.41 5.12H60l-2.73-4.24h-.06l-2.74 4.24h-1.3l3.44-5.21-3.39-5.14h1.34l2.76 4.24h.06l2.74-4.24h1.29zM72.56 475.25v1l-4.28 9.31h-1.17l4.31-9.28v-.07h-5.29v-1zM80 477.3a1.88 1.88 0 00-2-1.3c-1.6 0-2.66 1.57-2.67 4.57v.05h.06a2.73 2.73 0 012.75-1.62 3.18 3.18 0 013.24 3.3 3.3 3.3 0 01-3.47 3.53 3.2 3.2 0 01-2.91-1.67 6.45 6.45 0 01-.7-3.28c0-3.87 1.48-5.82 3.8-5.82a2.84 2.84 0 013.08 2.24zm-2.11 7.53a2.44 2.44 0 000-4.88 2.3 2.3 0 00-2.38 2.39 2.34 2.34 0 002.41 2.49zM85.47 479.76h1a1.92 1.92 0 002.06-1.92 2.07 2.07 0 00-4.06-.29h-1.04c0-1.21 1.06-2.51 3.09-2.52s3.14 1.15 3.18 2.63a2.5 2.5 0 01-2 2.51v.06a2.58 2.58 0 012.32 2.52c0 1.76-1.44 3.07-3.58 3.07-2 0-3.24-1.13-3.31-2.56h1a2.11 2.11 0 002.3 1.59 2.15 2.15 0 002.41-2.08 2.12 2.12 0 00-2.36-2h-1.01zM92.11 480.23c0-3.15 1.33-5.2 3.61-5.2s3.59 2 3.59 5.2v.41c0 3.14-1.33 5.18-3.6 5.18s-3.6-2-3.6-5.18zm1.09.39c0 2.63 1 4.21 2.51 4.21s2.5-1.58 2.5-4.21v-.39c0-2.62-1-4.22-2.5-4.22s-2.51 1.6-2.51 4.22zM104.06 485.6v-9.1H104l-2.43 1.75v-1.17l2.49-1.83h1.09v10.35zM52.34 507.15v-6.78h1.11v6.78a3.6 3.6 0 01-3.85 3.79 3.6 3.6 0 01-3.85-3.79v-6.78h1.1v6.78a2.75 2.75 0 105.49 0zM57 508.92a1 1 0 110 1.93 1 1 0 010-1.93zM61 508.15a2.42 2.42 0 002.65 1.78c1.53 0 2.5-.77 2.5-1.95 0-.93-.57-1.45-1.82-1.78l-1.77-.47a2.76 2.76 0 01-2.38-2.68c0-1.7 1.44-2.93 3.5-2.93s3.33 1.09 3.48 2.64H66a2.15 2.15 0 00-2.36-1.62c-1.4 0-2.35.76-2.35 1.87 0 .82.55 1.37 1.56 1.63l1.74.47c1.85.5 2.7 1.33 2.7 2.79 0 1.85-1.5 3-3.79 3-2.13 0-3.5-1.18-3.65-2.79zM70.42 508.92a1 1 0 110 1.93 1 1 0 010-1.93zM73 510.72l3.72-10.35h1.08l3.72 10.35h-1.13l-1.1-3.23h-4l-1.1 3.23zm4.23-9l-1.65 4.83H79l-1.65-4.83zM84.3 508.92a1 1 0 110 1.93 1 1 0 010-1.93z" fill="#4a4960"/><path d="M50 399.65V409h-2.16v-9.33h-3.07V398H53v1.66zM56.44 404.26V409h-1.92v-11.77h1.92v5a2.87 2.87 0 012.66-1.45c2 0 2.89 1.37 2.89 3.18v5h-1.93v-4.84a1.6 1.6 0 00-1.76-1.79 1.74 1.74 0 00-1.86 1.93zM67.69 409.14a3.91 3.91 0 01-4.12-4.2 4 4 0 014-4.17c2.77 0 3.85 1.91 3.85 4.43v.18h-5.9a2.27 2.27 0 004.26 1.19l1.5.66a3.67 3.67 0 01-3.59 1.91zm-2.13-5h4a1.81 1.81 0 00-1.94-2 2.06 2.06 0 00-2.06 1.98zM75.06 396.85V409h-1.93v-11.3zM79.19 404.17V409h-1.92v-8h1.92v1.23a2.7 2.7 0 012.47-1.4A2.38 2.38 0 0184 402.2a3.23 3.23 0 012.73-1.43c1.92 0 2.77 1.37 2.77 3.12V409h-1.89v-5a1.46 1.46 0 00-1.55-1.67 1.64 1.64 0 00-1.7 1.82V409h-1.92v-5a1.46 1.46 0 00-1.55-1.67 1.65 1.65 0 00-1.7 1.84zM93.77 409.14c-1.52 0-2.7-.79-2.7-2.39 0-2.6 3.3-2.55 5.16-2.55 0-1.17-.18-2-1.56-2a1.85 1.85 0 00-1.78 1.15l-1.5-.64a3.44 3.44 0 013.45-1.94c1.93 0 3.3.91 3.3 3V409h-1.9v-1a2.88 2.88 0 01-2.47 1.14zm.49-1.37c1 0 2-.53 2-1.6v-.79h-1c-.88 0-2.3.11-2.3 1.3.04.8.56 1.09 1.3 1.09zM108.28 409.14a5.66 5.66 0 115.59-5.63 5.39 5.39 0 01-5.59 5.63zm0-1.69c2.37 0 3.37-1.94 3.37-4.05s-1.13-3.89-3.4-3.89c-2.43 0-3.4 1.84-3.4 4s1.22 3.94 3.46 3.94zM116.33 409.11a1.23 1.23 0 111.27-1.23 1.23 1.23 0 01-1.27 1.23zM124.8 404.83V409h-2.14v-11h3.82c2.33 0 4.11.93 4.11 3.47 0 2.77-2.17 3.39-4.53 3.39zm0-1.52h1.66c1.32 0 2.06-.54 2.06-1.91s-.8-1.8-2.06-1.8h-1.66zM134.26 409.14c-1.52 0-2.69-.79-2.69-2.39 0-2.6 3.3-2.55 5.15-2.55 0-1.17-.18-2-1.56-2a1.85 1.85 0 00-1.78 1.15l-1.5-.64a3.46 3.46 0 013.46-1.94c1.92 0 3.29.91 3.29 3V409h-1.9v-1a2.86 2.86 0 01-2.47 1.14zm.49-1.37c1 0 2-.53 2-1.6v-.79h-1c-.88 0-2.3.11-2.3 1.3.01.8.55 1.09 1.3 1.09zM142.65 404.83V409h-1.92v-8h1.92v1.51a2.72 2.72 0 012.63-1.63v1.78c-1.57-.04-2.63.45-2.63 2.17zM148.79 405.06V409h-1.92v-11.77h1.92v7.22l2.9-3.51h2.11l-3.19 3.69L154 409h-2.22zM313.49 310.57c2.81.67 4.4 2 4.4 4.64 0 2.86-2.08 4.84-5.61 5.1v1.86h-1.5v-1.86c-3.42-.23-5.34-2.22-5.52-4.72H308a3.1 3.1 0 002.82 2.33v-5.2l-1-.25c-2.53-.6-4.07-2.09-4.07-4.51 0-2.68 2.07-4.57 5.09-4.88v-1.89h1.5V303c3.2.22 5.19 2.13 5.38 4.55H315a2.84 2.84 0 00-2.71-2.2v4.88zm-2.71-.66v-4.48a2.5 2.5 0 00-2.33 2.37c0 1.06.82 1.77 2.31 2.11zm1.5 8c1.82-.17 2.86-1.13 2.86-2.49s-.83-1.91-2.63-2.34l-.23-.06zM320.56 315.66a4.39 4.39 0 013.61-4.38v-.14a4 4 0 01-2.92-3.91c0-2.69 2.39-4.65 5.84-4.65s5.82 2 5.82 4.65a4 4 0 01-2.93 3.91v.14a4.4 4.4 0 013.61 4.37c0 3-2.68 5.16-6.56 5.16s-6.47-2.09-6.47-5.15zm10.16-.18c0-1.81-1.57-3.06-3.63-3.06s-3.65 1.25-3.65 3.06 1.58 3 3.65 3 3.63-1.2 3.63-3zm-.61-7.94a3.06 3.06 0 00-6.06 0 3.05 3.05 0 006.06 0zM347.6 302.93v11.64h2.21v2.51h-2.21v3.38h-2.76v-3.38h-8.5v-2.55c2.11-3.9 4.62-7.75 7-11.6zm-2.76 11.64v-9.24h-.15c-1.9 2.89-3.91 6.06-5.61 9.12v.12zM352.55 311.33c0-5.27 2.42-8.75 6.5-8.75s6.44 3.43 6.44 8.75v.73c0 5.28-2.42 8.75-6.49 8.75s-6.45-3.44-6.45-8.75zm2.9.72c0 3.89 1.38 6.22 3.58 6.22s3.55-2.34 3.55-6.22v-.71c0-3.88-1.36-6.22-3.55-6.22s-3.58 2.34-3.58 6.22zM370.62 316.6a2 2 0 012.07 2.08 2.05 2.05 0 11-2.07-2.08zM375.79 311.33c0-5.27 2.41-8.75 6.5-8.75s6.44 3.43 6.44 8.75v.73c0 5.28-2.42 8.75-6.49 8.75s-6.45-3.44-6.45-8.75zm2.9.72c0 3.89 1.38 6.22 3.57 6.22s3.56-2.34 3.56-6.22v-.71c0-3.88-1.36-6.22-3.56-6.22s-3.57 2.34-3.57 6.22zM392.07 311.33c0-5.27 2.42-8.75 6.5-8.75S405 306 405 311.33v.73c0 5.28-2.41 8.75-6.49 8.75s-6.45-3.44-6.45-8.75zm2.91.72c0 3.89 1.37 6.22 3.57 6.22s3.56-2.34 3.56-6.22v-.71c0-3.88-1.36-6.22-3.56-6.22s-3.57 2.34-3.57 6.22zM346.73 407.32v-6.16h-.06l-1.67 1.22v-1.23l1.77-1.28H348v7.45zM351.31 405.48a1.33 1.33 0 001.42.94 1.46 1.46 0 001.47-1.53 1.42 1.42 0 00-1.48-1.43 1.49 1.49 0 00-1.33.73h-1.08l.33-4.32H355v1.07h-3.37l-.18 2.13h.06a1.8 1.8 0 011.5-.63 2.29 2.29 0 012.39 2.41 2.53 2.53 0 01-2.73 2.62 2.3 2.3 0 01-2.54-2zM359.54 407.32v-7.45h1.24l2.28 5.16 2.28-5.16h1.23v7.45h-1.12v-5.13h-.06l-1.92 4.3h-.89l-1.91-4.3h-.06v5.13zM368.22 405.65c0-1 .71-1.72 2-1.72h1.46v-.53c0-.64-.42-.94-1.09-.94s-.95.27-1 .64h-1.16c.07-1 .8-1.64 2.24-1.64 1.23 0 2.25.51 2.25 2v3.9h-1.15v-.74a1.75 1.75 0 01-1.61.83 1.72 1.72 0 01-1.94-1.8zm3.5-.28v-.61h-1.27c-.71 0-1 .35-1 .82s.51.86 1.05.86a1.14 1.14 0 001.22-1.07zM377.48 407.23l-.12.33c-.48 1.29-1.12 1.79-2.24 1.79a4.13 4.13 0 01-.66-.05v-1a2.76 2.76 0 00.44 0 1 1 0 001.11-.83l.05-.18-2.06-5.74h1.35l1.37 4.63 1.4-4.63h1.28c-.2.93-1.91 5.65-1.92 5.68zM383.07 402a2.26 2.26 0 012.46-2.26 2.17 2.17 0 012.43 2.07 3.52 3.52 0 01-1.29 2.37l-1.84 2v.06h3.26v1.08h-5v-.81l2.77-3a2.43 2.43 0 00.84-1.58 1.11 1.11 0 00-1.22-1.11 1.17 1.17 0 00-1.25 1.18zM389.43 403.44c0-2.24 1-3.72 2.76-3.72s2.74 1.46 2.74 3.72v.31c0 2.25-1 3.72-2.76 3.72s-2.74-1.46-2.74-3.72zm1.23.31c0 1.65.58 2.64 1.52 2.64s1.51-1 1.51-2.64v-.3c0-1.65-.58-2.65-1.51-2.65s-1.52 1-1.52 2.65zM396.39 402a2.26 2.26 0 012.46-2.26 2.17 2.17 0 012.43 2.07 3.52 3.52 0 01-1.29 2.37l-1.84 2v.06h3.26v1.08h-5v-.81l2.77-3a2.43 2.43 0 00.84-1.58 1.12 1.12 0 00-1.22-1.11 1.17 1.17 0 00-1.25 1.18zM404.61 407.32v-6.16h-.06l-1.71 1.22v-1.23l1.77-1.28h1.23v7.45zM346.73 460.43v-6.17h-.06l-1.67 1.22v-1.23l1.77-1.28H348v7.46zM351.31 458.58a1.33 1.33 0 001.42.94 1.46 1.46 0 001.47-1.52 1.42 1.42 0 00-1.48-1.43 1.49 1.49 0 00-1.33.73h-1.08l.33-4.32H355V454h-3.37l-.18 2.13h.06a1.8 1.8 0 011.5-.63 2.29 2.29 0 012.39 2.41 2.53 2.53 0 01-2.73 2.62 2.3 2.3 0 01-2.54-2zM359.54 460.43V453h1.24l2.28 5.16 2.28-5.16h1.23v7.46h-1.12v-5.16h-.06l-1.92 4.3h-.89l-1.91-4.3h-.06v5.13zM368.22 458.75c0-1 .71-1.72 2-1.72h1.46v-.53c0-.64-.42-.94-1.09-.94s-.95.27-1 .64h-1.16c.07-1 .8-1.64 2.24-1.64 1.23 0 2.25.51 2.25 2v3.91h-1.15v-.75a1.75 1.75 0 01-1.61.83 1.72 1.72 0 01-1.94-1.8zm3.5-.27v-.62h-1.27c-.71 0-1 .35-1 .82s.51.86 1.05.86a1.14 1.14 0 001.22-1.06zM377.48 460.33l-.12.33c-.48 1.29-1.12 1.79-2.24 1.79a4.13 4.13 0 01-.66-.05v-1a2.65 2.65 0 00.44 0 1 1 0 001.11-.84l.05-.18-2.06-5.73h1.35l1.37 4.63 1.4-4.63h1.28c-.2.94-1.91 5.66-1.92 5.68zM383.07 455.14v-.06a2.26 2.26 0 012.46-2.26 2.17 2.17 0 012.43 2.07 3.5 3.5 0 01-1.29 2.37l-1.84 2v.06h3.26v1.09h-5v-.82l2.77-3a2.4 2.4 0 00.84-1.57 1.12 1.12 0 00-1.22-1.12 1.17 1.17 0 00-1.25 1.18v.07zM389.43 456.54c0-2.24 1-3.72 2.76-3.72s2.74 1.46 2.74 3.72v.31c0 2.25-1 3.72-2.76 3.72s-2.74-1.46-2.74-3.72zm1.23.31c0 1.65.58 2.64 1.52 2.64s1.51-1 1.51-2.64v-.3c0-1.65-.58-2.65-1.51-2.65s-1.52 1-1.52 2.65zM396.39 455.14v-.06a2.26 2.26 0 012.46-2.26 2.17 2.17 0 012.43 2.07 3.5 3.5 0 01-1.29 2.37l-1.84 2v.06h3.26v1.09h-5v-.82l2.77-3A2.4 2.4 0 00400 455a1.12 1.12 0 00-1.22-1.12 1.17 1.17 0 00-1.25 1.18v.07zM404.61 460.43v-6.17h-.06l-1.71 1.22v-1.23l1.77-1.28h1.23v7.46zM332.49 426.14c2.22 0 3.3 1.33 3.3 3.71s-1.09 3.75-3.3 3.75h-2.57v-7.46zm-1.33 6.37h1.19c1.48 0 2.17-.87 2.17-2.63s-.7-2.65-2.17-2.65h-1.19zM342.17 433.6H341v-1h-.06a1.71 1.71 0 01-1.71 1.05 1.73 1.73 0 01-1.95-1.91v-3.95h1.21v3.61a1 1 0 001.15 1.18 1.28 1.28 0 001.34-1.26v-3.53h1.21zM343.72 431.08v-.75a2.48 2.48 0 114.95 0v.67h-3.75v.29a1.3 1.3 0 001.35 1.4c.63 0 1.07-.3 1.15-.66h1.19a2.14 2.14 0 01-2.34 1.66 2.38 2.38 0 01-2.55-2.61zm3.77-.89v-.07a1.29 1.29 0 10-2.57 0v.07zM357.57 430.33v.73a2.57 2.57 0 11-5.14 0v-.72a2.46 2.46 0 012.58-2.62 2.43 2.43 0 012.56 2.61zm-3.91.06v.61c0 .94.46 1.66 1.35 1.66s1.34-.71 1.34-1.66v-.63c0-.94-.48-1.66-1.34-1.66s-1.35.74-1.35 1.68zM359.12 427.82h1.19v1h.06a1.65 1.65 0 011.74-1.12 1.78 1.78 0 011.95 2v3.9h-1.22v-3.53c0-.88-.46-1.26-1.14-1.26-.89 0-1.37.66-1.37 1.58v3.21h-1.21zM373.79 428.46a2.14 2.14 0 01-1.37 2.08l1.51 3.06h-1.39l-1.34-2.85h-1.55v2.85h-1.22v-7.46h2.85a2.25 2.25 0 012.51 2.32zm-2.72 1.27c.91 0 1.44-.42 1.44-1.24a1.25 1.25 0 00-1.41-1.3h-1.45v2.54zM375.14 431.08v-.75a2.48 2.48 0 114.95 0v.67h-3.75v.29a1.29 1.29 0 001.34 1.4c.64 0 1.08-.3 1.16-.66H380a2.12 2.12 0 01-2.33 1.66 2.38 2.38 0 01-2.53-2.61zm3.76-.89v-.07a1.29 1.29 0 10-2.56 0v.07zM381.34 430.29a2.37 2.37 0 012.49-2.57 2 2 0 012.3 1.92H385a1 1 0 00-1.13-.87c-.85 0-1.3.6-1.3 1.54v.78c0 1 .49 1.56 1.31 1.56s1.07-.36 1.15-.82h1.15c0 1-.78 1.86-2.34 1.86a2.36 2.36 0 01-2.49-2.6zM387.36 431.08v-.75a2.48 2.48 0 114.95 0v.67h-3.75v.29a1.29 1.29 0 001.34 1.4c.64 0 1.07-.3 1.15-.66h1.19a2.13 2.13 0 01-2.33 1.66 2.37 2.37 0 01-2.55-2.61zm3.76-.89v-.07a1.29 1.29 0 10-2.56 0v.07zM394.55 425.33a.75.75 0 110 1.5.75.75 0 110-1.5zm-.59 2.49h1.21v5.78H394zM398.39 432.72h-.06v2.79h-1.21v-7.7h1.18v.92h.06a1.72 1.72 0 011.71-1c1.34 0 2.17 1 2.17 2.53v.86c0 1.59-.83 2.55-2.2 2.55a1.68 1.68 0 01-1.65-.95zM401 431v-.54c0-1.06-.48-1.66-1.34-1.66s-1.35.58-1.35 1.55v.84a1.35 1.35 0 001.37 1.47c.86-.02 1.32-.66 1.32-1.66zM404.17 426.42h1.18v1.44h1.3v1h-1.3v3c0 .61.24.78.89.78h.47v1a6.24 6.24 0 01-.77.05c-1.41 0-1.79-.5-1.79-1.66v-3.12h-.88v-1h.9z"/></svg>