<svg data-name="Layer 1" xmlns="http://www.w3.org/2000/svg" viewBox="0 0 445.15 952.21"><rect x="1" y="1" width="443.15" height="950.21" rx="41" fill="#fff"/><path d="M403.15 2a40 40 0 0140 40v868.21a40 40 0 01-40 40H42a40 40 0 01-40-40V42A40 40 0 0142 2h361.15m0-2H42A42 42 0 000 42v868.21a42.05 42.05 0 0042 42h361.15a42.05 42.05 0 0042-42V42a42 42 0 00-42-42z" fill="#222055"/><path fill="#fff" d="M119.5 12.53h204.48V22H119.5z"/><rect x="193.61" y="15.64" width="56.27" height="7.75" rx="3.21" fill="#050708"/><path d="M42 23.38h361.2A29.82 29.82 0 01433 53.2v71.18H12.16V53.2A29.82 29.82 0 0142 23.38z" fill="#1751a5"/><path d="M33.26 99.47a2.1 2.1 0 00.54-.89 2 2 0 01-.54.9l-2.69 2.69zM43.86 80.51a9.29 9.29 0 014.85 2.28 9.52 9.52 0 00-4.85-2.28zM54.28 102.1v1.68-1.67l-2.36-2.71a2.11 2.11 0 01-.32-.48 2.56 2.56 0 00.33.48z" fill="#fff"/><path d="M53.42 98.35l-2-2.25v-7.27A7.82 7.82 0 0048.68 83a9.41 9.41 0 00-5.18-2.31v-1.63a1.07 1.07 0 00-2.13 0v1.65A9.5 9.5 0 0036.51 83a7.83 7.83 0 00-2.77 5.85v7.23l-2.25 2.25a1 1 0 00-.31.74v2.76a1.05 1.05 0 001.06 1.06h20.38a1.05 1.05 0 001.06-1.06v-2.78a1 1 0 00-.26-.7zm-1.86 2.39H33.31v-1.25l2.06-2.07a1.59 1.59 0 00.42-.69 1.51 1.51 0 00.07-.48v-7.42a5.71 5.71 0 012.06-4.26 7.33 7.33 0 013.74-1.76 7.43 7.43 0 01.94-.07 7.57 7.57 0 01.94.07 7.34 7.34 0 013.73 1.76 5.69 5.69 0 012.07 4.26v7.44a1.64 1.64 0 00.16.72 1.47 1.47 0 00.24.37l1.82 2.09zM45.25 103.44a1 1 0 00-1 1 1.82 1.82 0 01-3.63 0 1 1 0 10-2 0 3.81 3.81 0 107.61 0 1 1 0 00-.98-1z" fill="#fff"/><circle cx="52" cy="83.8" r="8.79" fill="#ff6169"/><path d="M48.56 172.24v-14.33h-4.88v-3.58h14.06v3.58h-4.88v14.33zM71.3 164.58v1.19c0 4.32-2.57 6.73-6.64 6.73S58 170.1 58 165.79v-1.18a6.25 6.25 0 016.66-6.61c4.07 0 6.64 2.58 6.64 6.58zm-9.07 0v1.29c0 1.7.64 3.45 2.43 3.45s2.4-1.72 2.4-3.45v-1.29c0-1.82-.68-3.46-2.4-3.46s-2.43 1.66-2.43 3.47zM75.47 155h4v3.47h3.07v3.17h-3.03v5.88c0 1.22.6 1.64 1.89 1.64h1.26v3a14.19 14.19 0 01-2.27.16c-3.58 0-5-1.1-5-4v-6.64h-2.15v-3.17h2.23zM85 168.17c0-2.54 1.77-4.21 5-4.21h3.27v-1.17c0-1.11-.77-1.69-2-1.69s-1.81.59-1.91 1.39h-3.9c.11-2.26 1.6-4.47 5.91-4.47 3.32 0 6 1.27 6 4.92v9.3h-3.93v-1.72h-.19a3.81 3.81 0 01-3.67 1.93c-2.74 0-4.58-1.6-4.58-4.28zm8.3-.55v-1.36h-2.22c-1.31 0-2 .65-2 1.59a1.74 1.74 0 002 1.64 2.05 2.05 0 002.17-1.87zM101.1 153.38h4.19v18.86h-4.19zM129.42 160.21a5.41 5.41 0 01-3.2 5l3.57 7H125l-3-6.37h-2.5v6.37h-4.24v-17.88h7.57c4.25 0 6.59 2.34 6.59 5.88zm-7.27 2.57c1.68 0 2.83-.84 2.83-2.55a2.53 2.53 0 00-2.79-2.62h-2.69v5.17zM132 165.88v-1.33c0-4.39 2.9-6.59 6.47-6.59 3.8 0 6.42 2.5 6.42 6.59v1.55h-8.82v.64a2.48 2.48 0 002.57 2.63c1.26 0 2.22-.61 2.33-1.49h3.83c-.09 1.91-1.85 4.62-6.14 4.62-3.97 0-6.66-2.24-6.66-6.62zm8.89-2.15v-.08a2.37 2.37 0 00-2.38-2.65 2.42 2.42 0 00-2.44 2.65v.08zM147.39 164.49c0-4 2.52-6.53 6.48-6.53 3.76 0 6 2.26 6 5.32h-3.78a2.07 2.07 0 00-2.12-2.05c-1.54 0-2.42 1.29-2.42 3.27v1.31c0 2.15.89 3.43 2.42 3.43a1.93 1.93 0 002.16-2H160c0 3.11-2.18 5.23-6.09 5.23s-6.47-2.5-6.47-6.66zM162.34 165.88v-1.33c0-4.39 2.9-6.59 6.47-6.59 3.79 0 6.41 2.5 6.41 6.59v1.55h-8.82v.64a2.48 2.48 0 002.58 2.63c1.26 0 2.21-.61 2.32-1.49h3.83c-.09 1.91-1.85 4.62-6.14 4.62-3.99 0-6.65-2.24-6.65-6.62zm8.88-2.15v-.08a2.37 2.37 0 00-2.38-2.65 2.42 2.42 0 00-2.44 2.65v.08zM180.61 152.1c1.5 0 2.5.85 2.5 2.12s-1 2.12-2.5 2.12a2.15 2.15 0 110-4.24zm-2.08 6.13h4.18v14h-4.18zM185.43 158.23H190l2.31 10.23h.17l2.65-10.23h4.38l-4.79 14h-4.82zM201 168.17c0-2.54 1.78-4.21 5-4.21h3.27v-1.17c0-1.11-.76-1.69-1.94-1.69s-1.81.59-1.92 1.39h-3.92c.1-2.26 1.6-4.47 5.9-4.47 3.32 0 6 1.27 6 4.92v9.3h-3.89v-1.72h-.19a3.79 3.79 0 01-3.66 1.93c-2.75 0-4.65-1.6-4.65-4.28zm8.3-.55v-1.36h-2.17c-1.31 0-2 .65-2 1.59a1.74 1.74 0 002 1.64 2.05 2.05 0 002.18-1.87zM221.47 170.05h-.21v2.19h-4.16v-18.86h4.2v7.07h.2c.47-1.46 2-2.38 4-2.38 3.23 0 5.14 2.35 5.14 6.38V166c0 4-1.92 6.42-5.16 6.42a4 4 0 01-4.01-2.37zm4.83-4.29v-1c0-2.14-.91-3.38-2.48-3.38s-2.52 1.24-2.52 3.26v1.32c0 1.93 1 3.18 2.55 3.18s2.45-1.26 2.45-3.38zM233.88 153.38h4.19v18.86h-4.19zM241.27 165.88v-1.33c0-4.39 2.9-6.59 6.47-6.59 3.79 0 6.41 2.5 6.41 6.59v1.55h-8.82v.64a2.48 2.48 0 002.58 2.63c1.26 0 2.22-.61 2.32-1.49h3.83c-.09 1.91-1.85 4.62-6.14 4.62-3.98 0-6.65-2.24-6.65-6.62zm8.88-2.15v-.08a2.37 2.37 0 00-2.37-2.65 2.43 2.43 0 00-2.45 2.65v.08zM262.69 158c3.23 0 5.57 1.45 5.57 4.23h-3.65a1.78 1.78 0 00-2-1.46c-1.22 0-1.89.57-1.89 1.4 0 1.28 2.25 1.44 3.72 1.69 2.58.42 4.26 1.52 4.26 4 0 2.9-2.26 4.69-6.27 4.69-3.85 0-6-1.77-6-4.26h4.06c.09.85.8 1.48 2.09 1.48s2-.63 2-1.43c0-1.19-1.71-1.3-3.45-1.62-2.46-.49-4.44-1.5-4.44-4.23.11-3.28 2.87-4.49 6-4.49z"/><path d="M47.14 196c0 2.11 1 3.3 2.64 3.3a2.19 2.19 0 002.36-1.94h1.77v.16c-.13 2-1.85 3.42-4.14 3.42-2.86 0-4.47-1.84-4.47-4.94v-1.5c0-3.09 1.64-5 4.47-5a3.87 3.87 0 014.14 3.56v.14h-1.77a2.26 2.26 0 00-2.36-2.06c-1.66 0-2.64 1.24-2.64 3.36zM63.26 200.67h-1.74v-1.41h-.1a2.5 2.5 0 01-2.5 1.54 2.55 2.55 0 01-2.87-2.8v-5.8h1.78v5.3a1.51 1.51 0 001.69 1.72 1.86 1.86 0 002-1.84v-5.18h1.78zM66.05 192.2h1.76v1.32h.1a2.19 2.19 0 012.22-1.45 3.37 3.37 0 01.6.05v1.65a3 3 0 00-.76-.07 1.88 1.88 0 00-2.12 2v5h-1.8zM72.67 192.2h1.77v1.32h.09a2.19 2.19 0 012.22-1.45 3.37 3.37 0 01.6.05v1.65a3 3 0 00-.76-.07 1.88 1.88 0 00-2.12 2v5h-1.8zM78.71 197v-1.11a3.64 3.64 0 117.26 0v1h-5.5v.41a1.89 1.89 0 002 2.06c.93 0 1.57-.44 1.69-1h1.74c-.1 1-1.14 2.45-3.42 2.45a3.48 3.48 0 01-3.77-3.81zm5.52-1.32v-.1a1.89 1.89 0 10-3.76 0v.1zM88.21 192.2H90v1.51a2.41 2.41 0 012.55-1.64 2.61 2.61 0 012.89 2.93v5.71h-1.78v-5.21c0-1.29-.67-1.85-1.67-1.85-1.32 0-2 1-2 2.32v4.7h-1.78zM98.59 190.14h1.74v2.12h1.9v1.45h-1.9v4.4c0 .9.34 1.15 1.3 1.15a6.34 6.34 0 00.69 0v1.42a8.61 8.61 0 01-1.13.08c-2.06 0-2.63-.74-2.63-2.45v-4.57h-1.28v-1.45h1.31zM94.4 693.06c0 2.61 1.15 4.07 3.16 4.07a2.66 2.66 0 002.84-2.51h2.75v.3c-.14 2.78-2.46 4.7-5.61 4.7-3.87 0-6-2.48-6-6.56v-1.76c0-4.07 2.19-6.6 6-6.6 3.16 0 5.48 2 5.61 4.83v.3h-2.75a2.73 2.73 0 00-2.84-2.63c-2 0-3.16 1.5-3.16 4.12zM115.66 699.35H113v-1.87h-.14a3.27 3.27 0 01-3.29 2c-2.22 0-3.74-1.14-3.74-3.8v-7.56h2.77V695c0 1.7 1 2.15 2 2.15a2.24 2.24 0 002.32-2.27v-6.69h2.77zM119.06 688.15h2.77v1.76h.17a2.8 2.8 0 012.82-1.91 3.93 3.93 0 01.88.08v2.48a4.46 4.46 0 00-1.1-.1 2.38 2.38 0 00-2.7 2.54v6.34h-2.84zM128 688.15h2.77v1.76h.14a2.8 2.8 0 012.82-1.91 4 4 0 01.88.08v2.48a4.51 4.51 0 00-1.1-.1 2.38 2.38 0 00-2.67 2.55v6.34H128zM136.24 694.39v-1.29c0-3.35 2.18-5.15 5-5.15s4.93 2 4.93 5.15v1.28H139v.53a2.28 2.28 0 002.37 2.44c1.14 0 1.94-.54 2.06-1.24H146c-.12 1.41-1.5 3.44-4.69 3.44s-5.07-1.84-5.07-5.16zm7.21-1.73v-.11a2.25 2.25 0 10-4.49 0v.11zM148.88 688.15h2.7v2h.14a3.17 3.17 0 013.33-2.14c2.24 0 3.72 1.29 3.72 3.89v7.48H156v-6.68c0-1.63-.88-2.26-2-2.26-1.49 0-2.34 1.09-2.34 2.73v6.21h-2.77zM162.77 685.5h2.7v2.78h2.47v2.2h-2.47v5.3c0 1.09.46 1.43 1.62 1.43h1v2.11a12.29 12.29 0 01-1.63.12c-2.78 0-3.71-.93-3.71-3.22v-5.7H161v-2.2h1.75z" fill="#389969"/><path d="M292 697.58c-3.84 0-6.16-2.48-6.16-6.54v-1.81c0-4.08 2.32-6.57 6.16-6.57s6.15 2.5 6.15 6.57V691c-.04 4.1-2.34 6.58-6.15 6.58zm0-12.45c-1.9 0-3.26 1.36-3.26 4.07v1.85c0 2.72 1.36 4.08 3.26 4.08s3.27-1.36 3.27-4.08v-1.85c-.04-2.71-1.41-4.07-3.27-4.07zM300 686.12h3l2.21 8.53h.12l2.44-8.53h2.93l-3.92 11.19h-3.08zM312.05 692.35v-1.28c0-3.35 2.18-5.15 5-5.15s4.92 2 4.92 5.15v1.27h-7.17v.54a2.27 2.27 0 002.37 2.43c1.14 0 1.94-.54 2.07-1.23h2.63c-.12 1.41-1.5 3.43-4.69 3.43s-5.13-1.83-5.13-5.16zm7.2-1.72v-.11a2.25 2.25 0 10-4.49 0v.11zM324.78 686.12h2.77v1.76h.14a2.8 2.8 0 012.82-1.92 3.39 3.39 0 01.88.09v2.48a4.43 4.43 0 00-1.1-.11 2.38 2.38 0 00-2.67 2.55v6.34h-2.84zM340.42 687.82h.12v-5.64h2.78v15.13h-2.72v-1.79h-.14a3.23 3.23 0 01-3.27 1.93c-2.53 0-4.17-1.85-4.17-4.93v-1.61c0-3.1 1.66-4.93 4.2-4.93a3.21 3.21 0 013.2 1.84zm-4.56 3.36v1.05c0 1.89.89 2.93 2.33 2.93s2.35-1 2.35-2.82V691a2.41 2.41 0 00-2.4-2.68c-1.4-.04-2.28.99-2.28 2.86zM356.47 697.31h-2.7v-1.86h-.14a3.31 3.31 0 01-3.3 2c-2.22 0-3.73-1.15-3.73-3.8v-7.56h2.77v6.81c0 1.7 1 2.15 2 2.15a2.24 2.24 0 002.31-2.28v-6.68h2.77zM359.26 692.35v-1.28c0-3.35 2.18-5.15 5-5.15s4.93 2 4.93 5.15v1.27H362v.54a2.26 2.26 0 002.37 2.43c1.13 0 1.93-.54 2.06-1.23H369c-.11 1.41-1.49 3.43-4.68 3.43s-5.06-1.83-5.06-5.16zm7.2-1.72v-.11a2.25 2.25 0 10-4.48 0v.11zM353.46 367.61a141.38 141.38 0 016.54 58.95c0 .16 0 .32-.05.48a142.47 142.47 0 01-26.08 68.33l-29.82 30.46a142.06 142.06 0 01-40.61 21.23l-.32.1a142 142 0 1190.34-179.55z" fill="#b43201"/><path d="M276.79 541.88a142.51 142.51 0 01-13.35 5.18l-.32.1c-9.22 2.83-24-2.42-27.42 6.13a142.19 142.19 0 01-127.17-51.41l110-89.67.2.46v.09l.06.13.21.46z" fill="#d45801"/><path d="M333.87 495.37l-29.82 30.46a142.84 142.84 0 01-68.35 27.46l-17.27-140.81.26.19.09.06h.05l.27.19z" fill="#ee8902"/><path d="M360 426.56c0 .16 0 .32-.05.48a142.47 142.47 0 01-26.08 68.33l-29.82 30.46L219 413.4l-.5-.65h.31z" fill="#fbac00"/><path d="M12.16 841.48H433v70.58a22.56 22.56 0 01-22.56 22.56H34.72a22.56 22.56 0 01-22.56-22.56v-70.58z" fill="#3c3c47"/><rect x="148.1" y="920.29" width="149.41" height="5.49" rx="2.74" fill="#484848"/><path d="M28.81 885.05c2.34 0 3.45 1.41 3.45 3.83s-1.13 3.88-3.45 3.88H26v-7.71zm-1.29 6.41h1.09c1.43 0 2.08-.83 2.08-2.55s-.66-2.57-2.08-2.57h-1.09zM33.39 891c0-1.08.75-1.8 2.14-1.8H37v-.52c0-.58-.39-.86-1-.86s-.9.26-1 .63h-1.39c.07-1 .77-1.8 2.41-1.8 1.35 0 2.44.54 2.44 2.07v4h-1.4V892H37a1.73 1.73 0 01-1.63.85 1.79 1.79 0 01-1.98-1.85zm3.6-.26v-.62h-1.15c-.66 0-1 .33-1 .77s.47.81 1 .81a1 1 0 001.16-.94zM42.36 886.65c1.34 0 2.28.64 2.28 1.77h-1.31c0-.35-.36-.71-1-.71s-1 .27-1 .7c0 .61.9.68 1.55.8 1.1.18 1.9.6 1.9 1.69s-1 2-2.56 2-2.43-.71-2.43-1.78h1.44c.06.43.39.72 1.06.72s1.05-.33 1.05-.73c0-.56-.7-.64-1.48-.79-1.08-.21-1.95-.59-1.95-1.75.09-1.38 1.18-1.92 2.45-1.92zM46.3 884.64h1.48v3.17h.08a1.72 1.72 0 011.78-1.14 1.87 1.87 0 012 2.09v4h-1.5v-3.58c0-.87-.48-1.22-1.1-1.22-.78 0-1.26.59-1.26 1.47v3.33H46.3zM54.91 891.84h-.08v.92h-1.46v-8.12h1.49v3.07h.07a1.69 1.69 0 011.73-1c1.39 0 2.23 1 2.23 2.68v.79c0 1.68-.84 2.68-2.25 2.68a1.73 1.73 0 01-1.73-1.02zm2.46-1.84v-.5c0-1-.45-1.61-1.24-1.61s-1.27.59-1.27 1.53v.71a1.31 1.31 0 001.28 1.46c.78.02 1.23-.59 1.23-1.59zM65.6 889.42v.64a2.74 2.74 0 11-5.48 0v-.63a2.61 2.61 0 012.75-2.78 2.58 2.58 0 012.73 2.77zm-4 0v.6c0 .87.39 1.61 1.25 1.61s1.23-.73 1.23-1.61v-.6c0-.9-.41-1.62-1.23-1.62s-1.23.77-1.23 1.66zM66.78 891c0-1.08.74-1.8 2.13-1.8h1.47v-.52c0-.58-.39-.86-1-.86s-.9.26-1 .63H67c.07-1 .77-1.8 2.41-1.8 1.34 0 2.44.54 2.44 2.07v4h-1.41V892h-.06a1.73 1.73 0 01-1.63.85 1.79 1.79 0 01-1.97-1.85zm3.6-.26v-.62h-1.15c-.66 0-1 .33-1 .77s.47.81 1 .81a1.05 1.05 0 001.15-.94zM73.63 886.76h1.48v.94h.08a1.49 1.49 0 011.51-1 1.92 1.92 0 01.47.05v1.33a2.27 2.27 0 00-.59-.06 1.27 1.27 0 00-1.43 1.37v3.4h-1.52zM82 887.67h.06v-3h1.49v8.12H82.1v-1H82a1.74 1.74 0 01-1.76 1c-1.35 0-2.23-1-2.23-2.64v-.86c0-1.66.89-2.65 2.25-2.65a1.72 1.72 0 011.74 1.03zm-2.45 1.8v.53c0 1 .48 1.57 1.25 1.57s1.26-.55 1.26-1.52v-.74a1.29 1.29 0 00-1.28-1.44c-.78.04-1.22.6-1.22 1.6z" fill="#389969"/><path d="M116 889.39c0 1.4.61 2.18 1.69 2.18a1.43 1.43 0 001.53-1.35h1.47v.17a2.75 2.75 0 01-3 2.51c-2.07 0-3.23-1.32-3.23-3.51v-.94c0-2.19 1.17-3.55 3.23-3.55a2.78 2.78 0 013 2.6v.15h-1.47a1.48 1.48 0 00-1.53-1.41c-1.06 0-1.69.81-1.69 2.22zM127.42 889.42v.64a2.74 2.74 0 11-5.48 0v-.63a2.74 2.74 0 115.48 0zm-4 0v.6c0 .87.39 1.61 1.24 1.61s1.23-.73 1.23-1.61v-.6c0-.9-.4-1.62-1.23-1.62s-1.22.77-1.22 1.66zM128.91 886.76h1.45v1h.07a1.71 1.71 0 011.79-1.14 1.85 1.85 0 012 2.08v4h-1.48v-3.58c0-.88-.47-1.22-1.08-1.22-.8 0-1.26.59-1.26 1.47v3.33h-1.48zM136.35 885.33h1.45v1.49h1.33V888h-1.33v2.84c0 .59.25.77.87.77h.51v1.13a5.16 5.16 0 01-.87.07c-1.49 0-2-.5-2-1.73V888h-.91v-1.18h.94zM140.27 891c0-1.08.74-1.8 2.13-1.8h1.46v-.52c0-.58-.39-.86-1-.86s-.89.26-1 .63h-1.4c.07-1 .77-1.8 2.41-1.8 1.34 0 2.44.54 2.44 2.07v4h-1.41V892h-.07a1.71 1.71 0 01-1.62.85 1.79 1.79 0 01-1.94-1.85zm3.59-.26v-.62h-1.14c-.66 0-1 .33-1 .77s.47.81 1 .81a1 1 0 001.14-.94zM146.78 889.38a2.52 2.52 0 012.67-2.73 2.21 2.21 0 012.47 2.13h-1.37a1 1 0 00-1.06-.9c-.78 0-1.21.59-1.21 1.51v.7c0 1 .45 1.55 1.21 1.55s1-.35 1.08-.85h1.37c0 1.18-.86 2.08-2.49 2.08a2.52 2.52 0 01-2.67-2.78zM153.74 885.33h1.44v1.49h1.33V888h-1.33v2.84c0 .59.25.77.87.77h.52v1.13a5.31 5.31 0 01-.88.07c-1.49 0-2-.5-2-1.73V888h-.9v-1.18h.94zM160.14 886.65c1.34 0 2.28.64 2.28 1.77h-1.31c0-.35-.36-.71-1-.71s-1 .27-1 .7c0 .61.9.68 1.55.8 1.1.18 1.9.6 1.9 1.69s-1 2-2.56 2-2.43-.71-2.43-1.78h1.44c.06.43.39.72 1.06.72s1-.33 1-.73c0-.56-.7-.64-1.48-.79-1.08-.21-2-.59-2-1.75.14-1.38 1.28-1.92 2.55-1.92zM200.44 892.76v-7.71H202v7.71zM203.81 886.76h1.45v1h.08a1.69 1.69 0 011.78-1.14 1.86 1.86 0 012 2.08v4h-1.48v-3.58c0-.88-.47-1.22-1.08-1.22-.81 0-1.26.59-1.26 1.47v3.33h-1.49zM210.11 886.76h1.62l1.18 4.57h.09l1.31-4.57h1.56l-2.1 6h-1.67zM222.06 889.42v.64a2.74 2.74 0 11-5.48 0v-.63a2.61 2.61 0 012.75-2.78 2.58 2.58 0 012.73 2.77zm-4 0v.6c0 .87.39 1.61 1.25 1.61s1.23-.73 1.23-1.61v-.6c0-.9-.41-1.62-1.23-1.62s-1.23.77-1.23 1.66zM224.4 884.16a.84.84 0 11-.93.84.84.84 0 01.93-.84zm-.74 2.6h1.48v6h-1.48zM226.75 889.38a2.52 2.52 0 012.66-2.73 2.22 2.22 0 012.48 2.13h-1.38a1 1 0 00-1.06-.9c-.78 0-1.21.59-1.21 1.51v.7c0 1 .46 1.55 1.22 1.55a.94.94 0 001.08-.85h1.37c0 1.18-.86 2.08-2.5 2.08a2.51 2.51 0 01-2.66-2.78zM233.05 890.1v-.69a2.65 2.65 0 115.3 0v.68h-3.85v.29a1.22 1.22 0 001.27 1.31c.62 0 1-.29 1.11-.66h1.41a2.27 2.27 0 01-2.51 1.84 2.53 2.53 0 01-2.73-2.77zm3.86-.93a1.19 1.19 0 00-1.2-1.32 1.21 1.21 0 00-1.21 1.32zM242 886.65c1.34 0 2.29.64 2.29 1.77H243c0-.35-.35-.71-1-.71s-1 .27-1 .7c0 .61.9.68 1.55.8 1.11.18 1.91.6 1.91 1.69s-1 2-2.56 2-2.43-.71-2.43-1.78h1.44c.05.43.39.72 1.05.72s1.06-.33 1.06-.73c0-.56-.71-.64-1.49-.79-1.07-.21-1.94-.59-1.94-1.75 0-1.38 1.13-1.92 2.41-1.92zM286.45 892.76h-5v-7.71h5v1.29H283v1.92h3.25v1.21H283v2h3.45zM290.36 890.75h-.05l-1.17 2h-1.59l1.87-3-1.92-3h1.72l1.14 2h.06l1.16-2h1.65l-2 3 1.94 3h-1.67zM296 891.84h-.08v2.91h-1.49v-8h1.46v1h.11a1.77 1.77 0 011.75-1c1.39 0 2.23 1 2.23 2.68v.79c0 1.68-.85 2.68-2.25 2.68a1.71 1.71 0 01-1.73-1.06zm2.43-1.83v-.5c0-1-.45-1.6-1.25-1.6s-1.26.57-1.26 1.51v.75a1.29 1.29 0 001.27 1.44c.81 0 1.26-.61 1.26-1.61zM301.2 890.1v-.69a2.65 2.65 0 115.3 0v.68h-3.85v.29a1.22 1.22 0 001.27 1.31c.61 0 1-.29 1.11-.66h1.41a2.27 2.27 0 01-2.51 1.84 2.53 2.53 0 01-2.73-2.77zm3.86-.93a1.19 1.19 0 00-1.2-1.32 1.21 1.21 0 00-1.21 1.32zM308 886.76h1.45v1h.07a1.71 1.71 0 011.79-1.14 1.85 1.85 0 012 2.08v4h-1.48v-3.58c0-.88-.47-1.22-1.08-1.22-.8 0-1.26.59-1.26 1.47v3.33H308zM317.19 886.65c1.34 0 2.28.64 2.28 1.77h-1.31c0-.35-.36-.71-1-.71s-1 .27-1 .7c0 .61.9.68 1.55.8 1.1.18 1.9.6 1.9 1.69s-1 2-2.56 2-2.43-.71-2.43-1.78h1.44c.06.43.39.72 1.06.72s1-.33 1-.73c0-.56-.7-.64-1.48-.79-1.08-.21-2-.59-2-1.75.14-1.38 1.28-1.92 2.55-1.92zM320.83 890.1v-.69a2.65 2.65 0 115.3 0v.68h-3.85v.29a1.23 1.23 0 001.28 1.31c.6 0 1-.29 1.1-.66h1.41a2.27 2.27 0 01-2.51 1.84 2.53 2.53 0 01-2.73-2.77zm3.86-.93a1.19 1.19 0 00-1.2-1.32 1.21 1.21 0 00-1.21 1.32zM329.77 886.65c1.34 0 2.29.64 2.29 1.77h-1.32c0-.35-.35-.71-1-.71s-1 .27-1 .7c0 .61.9.68 1.55.8 1.11.18 1.91.6 1.91 1.69s-1 2-2.57 2-2.42-.71-2.42-1.78h1.44c.05.43.39.72 1.05.72s1.06-.33 1.06-.73c0-.56-.71-.64-1.49-.79-1.08-.21-1.94-.59-1.94-1.75.04-1.38 1.17-1.92 2.44-1.92zM378 892.76v-7.71h1.55l2.2 4.89h.05l2.19-4.89h1.55v7.71h-1.38v-5.07h-.08l-1.82 4.07h-1l-1.84-4.07h-.07v5.07zM392.62 889.42v.64a2.74 2.74 0 11-5.48 0v-.63a2.61 2.61 0 012.75-2.78 2.58 2.58 0 012.73 2.77zm-4 0v.6c0 .87.39 1.61 1.25 1.61s1.23-.73 1.23-1.61v-.6c0-.9-.41-1.62-1.23-1.62s-1.23.77-1.23 1.66zM394.17 886.76h1.48v.94h.08a1.49 1.49 0 011.51-1 1.92 1.92 0 01.47.05v1.33a2.27 2.27 0 00-.59-.06 1.27 1.27 0 00-1.43 1.37v3.4h-1.52zM398.57 890.1v-.69a2.65 2.65 0 115.3 0v.68H400v.29a1.22 1.22 0 001.27 1.31c.61 0 1-.29 1.11-.66h1.41a2.27 2.27 0 01-2.51 1.84 2.53 2.53 0 01-2.71-2.77zm3.86-.93a1.21 1.21 0 10-2.41 0z" fill="#fff"/><path d="M64 873.38H44.86l-.45-.62a13.08 13.08 0 01-2.48-7.71 12.5 12.5 0 1125 0 13 13 0 01-2.47 7.71zm-17.58-3h16a10.08 10.08 0 001.49-5.33 9.5 9.5 0 10-19 0 10.2 10.2 0 001.51 5.33z" fill="#389969"/><circle cx="54.56" cy="867.36" r="1.2" fill="#389969"/><path fill="#389969" d="M53.96 862.78h1.03v3.72h-1.03z"/><rect x="60.55" y="866.64" width="2.27" height="1.17" rx=".53" fill="#389969"/><rect x="46.5" y="866.64" width="2.27" height="1.17" rx=".53" fill="#389969"/><rect x="48.28" y="860.94" width="2.27" height="1.17" rx=".53" transform="rotate(50.87 49.394 861.562)" fill="#389969"/><rect x="53.34" y="858.01" width="2.27" height="1.17" rx=".53" transform="rotate(88.96 54.503 858.568)" fill="#389969"/><rect x="59.05" y="861.62" width="2.27" height="1.17" rx=".53" transform="rotate(152.62 60.198 862.2)" fill="#389969"/><path d="M147.94 874.22h-19.25a2.38 2.38 0 01-2.3-3 12.46 12.46 0 0123.86 0 2.39 2.39 0 01-2.31 3zm-18.41-3h17.57a9.52 9.52 0 00-17.57 0z" fill="#fff"/><path d="M138.38 862a5.47 5.47 0 115.47-5.47 5.47 5.47 0 01-5.47 5.47zm0-7.94a2.47 2.47 0 102.47 2.47 2.48 2.48 0 00-2.47-2.53zM229.84 875.41H215a2.62 2.62 0 01-2.62-2.62v-19.53a2.61 2.61 0 012.62-2.61h10.47v3h-10.09v18.76h14.08V858h3v14.78a2.62 2.62 0 01-2.62 2.63z" fill="#fff"/><path fill="#fff" d="M224.379 853.155l2.189-2.052 5.498 5.866-2.188 2.052z"/><path d="M230.9 860h-.12c-2.17-.18-4.81-.36-5.48-.35a1.64 1.64 0 01-1.24-.48 1.72 1.72 0 01-.51-1.23v-6l.13-.36 1.38.57 1.49.08v4.43c1.6.09 3.9.28 4.48.32l-.11 1.31.35 1.65zM226.35 865.74h-7.86a1.5 1.5 0 010-3h7.86a1.5 1.5 0 010 3zM226.35 869.67h-7.86a1.5 1.5 0 110-3h7.86a1.5 1.5 0 110 3zM315.21 874.53h-17.44a2.54 2.54 0 01-2.54-2.53v-12.58a2.54 2.54 0 012.54-2.54h17.44a2.54 2.54 0 012.54 2.54V872a2.54 2.54 0 01-2.54 2.53zm-17-3h16.52v-11.65h-16.5z" fill="#fff"/><path d="M298.23 868.63h-3v-12.58a2.54 2.54 0 012.54-2.54H312a2.54 2.54 0 012.53 2.54v2.33h-3v-1.87h-13.3zM317.75 869.23h-5a3.65 3.65 0 110-7.3h5zm-5-4.3a.65.65 0 100 1.3h2v-1.3z" fill="#fff"/><path d="M313.65 865.74a.58.58 0 01-1.15 0 .58.58 0 011.15 0z" fill="#fff"/><circle cx="381.36" cy="862.63" r="2.84" fill="#fff"/><circle cx="390.8" cy="862.63" r="2.84" fill="#fff"/><circle cx="400.25" cy="862.63" r="2.84" fill="#fff"/><path d="M417 743.73H28.18v-75.32H417zm-386.79-2H415v-71.32H30.18z" fill="#c3bbff"/><path fill="#c3bbff" d="M221.58 669.41h2v73.32h-2z"/><path d="M335.08 193.19c1.85.37 3.3 1.27 3.3 3.5s-1.5 3.71-4.38 3.89V202h-1.08v-1.4c-3-.17-4.28-1.88-4.36-3.68h2.76a1.75 1.75 0 001.6 1.39v-2.85l-.89-.19c-1.93-.39-3.21-1.43-3.21-3.43 0-2.17 1.63-3.56 4.1-3.76v-1.41H334v1.41c2.69.17 4.11 1.8 4.18 3.57h-2.68a1.67 1.67 0 00-1.5-1.34V193zm-2.16-2.87a1.33 1.33 0 00-1.23 1.29c0 .55.45.92 1.23 1.14zm1.08 8c1-.12 1.55-.66 1.55-1.35s-.53-1-1.55-1.29zM343.71 197.66a1.65 1.65 0 001.69 1c1.73 0 2.52-1.73 2.45-3.94h-.18a3 3 0 01-3 1.66 4 4 0 01-4.2-4.21c0-2.82 2.12-4.53 5-4.53s5.27 1.76 5.27 6.59c0 4.45-1.89 6.83-5.41 6.83-3 0-4.45-1.8-4.56-3.37zm1.73-7.68a2.06 2.06 0 102 2.07 1.9 1.9 0 00-2-2.05zM361.89 187.85v8.28h1.51v2.47h-1.51v2.2H359v-2.2h-6.25v-2.52c1.45-2.79 3.12-5.52 4.71-8.23zm-2.89 8.28v-6h-.14c-1.18 1.92-2.35 3.88-3.39 6v.06zM365.27 194c0-3.86 2-6.38 5.16-6.38s5.1 2.46 5.1 6.38v.64c0 3.85-2 6.4-5.16 6.4s-5.1-2.49-5.1-6.4zm3.12.63c0 2.45.75 3.89 2 3.89s2-1.45 2-3.89V194c0-2.44-.75-3.86-2-3.86s-2 1.41-2 3.86zM379.38 197.41a1.76 1.76 0 011.87 1.81 1.86 1.86 0 11-1.87-1.81zM383.25 194c0-3.86 2-6.38 5.17-6.38s5.09 2.46 5.09 6.38v.64c0 3.85-2 6.4-5.16 6.4s-5.1-2.49-5.1-6.4zm3.13.63c0 2.45.75 3.89 2 3.89s2-1.45 2-3.89V194c0-2.44-.75-3.86-2-3.86s-2 1.41-2 3.86zM395.7 194c0-3.86 2-6.38 5.16-6.38s5.1 2.46 5.1 6.38v.64c0 3.85-2 6.4-5.17 6.4s-5.09-2.49-5.09-6.4zm3.12.63c0 2.45.75 3.89 2 3.89s2-1.45 2-3.89V194c0-2.44-.75-3.86-2-3.86s-2 1.41-2 3.86z"/><path d="M94.78 720.18c2.26.5 3.73 1.57 3.73 3.94s-1.74 4.14-4.84 4.36v1.59h-1.26v-1.59c-3.14-.2-4.67-2-4.78-4.07h2.65a2.32 2.32 0 002.13 1.79v-3.87l-.93-.21c-2.15-.48-3.53-1.72-3.53-3.86 0-2.36 1.8-3.94 4.46-4.19v-1.61h1.26v1.6c2.86.18 4.51 1.9 4.64 3.93h-2.6a2.18 2.18 0 00-2-1.7v3.64zm-2.37-3.86a1.85 1.85 0 00-1.72 1.76c0 .78.63 1.3 1.72 1.57zm1.26 9.91c1.39-.14 2.14-.86 2.14-1.84s-.7-1.45-2.14-1.77zM104 725.35a2.12 2.12 0 002.15 1.21c2.28 0 3.23-2.23 3.14-5h-.16a3.52 3.52 0 01-3.5 2 4.59 4.59 0 01-4.77-4.86c0-3.2 2.35-5.12 5.47-5.12s5.72 1.81 5.72 7.48c0 5.15-2 7.87-5.94 7.87-3.16 0-4.74-1.86-4.89-3.59zm2.26-9.41a2.52 2.52 0 00-2.57 2.71 2.59 2.59 0 105.18 0 2.52 2.52 0 00-2.62-2.71zM124.33 713.88v9.65h1.81V726h-1.81v2.7h-2.74V726h-7.16v-2.48c1.73-3.24 3.74-6.42 5.68-9.61zm-2.74 9.65v-7.37h-.16c-1.48 2.33-3 4.8-4.35 7.29v.08zM128.38 721c0-4.44 2.12-7.35 5.65-7.35s5.59 2.86 5.59 7.35v.66c0 4.43-2.13 7.34-5.64 7.34s-5.6-2.87-5.6-7.34zm2.92.65c0 3.06 1 4.87 2.7 4.87s2.7-1.82 2.7-4.87V721c0-3.06-1-4.88-2.7-4.88s-2.7 1.81-2.7 4.88zM144 725.14a1.88 1.88 0 110 3.75 1.88 1.88 0 110-3.75zM148.38 721c0-4.44 2.12-7.35 5.65-7.35s5.59 2.86 5.59 7.35v.66c0 4.43-2.13 7.34-5.64 7.34s-5.6-2.87-5.6-7.34zm2.92.65c0 3.06 1 4.87 2.7 4.87s2.7-1.82 2.7-4.87V721c0-3.06-1-4.88-2.7-4.88s-2.7 1.81-2.7 4.88zM162.31 721c0-4.44 2.12-7.35 5.65-7.35s5.59 2.86 5.59 7.35v.66c0 4.43-2.13 7.34-5.64 7.34s-5.6-2.87-5.6-7.34zm2.92.65c0 3.06 1 4.87 2.7 4.87s2.7-1.82 2.7-4.87V721c0-3.06-1-4.88-2.7-4.88s-2.7 1.81-2.7 4.88zM287.17 720.18c2.27.5 3.74 1.57 3.74 3.94s-1.75 4.14-4.84 4.36v1.59h-1.26v-1.59c-3.14-.2-4.67-2-4.79-4.07h2.66a2.32 2.32 0 002.13 1.79v-3.87l-.93-.21c-2.16-.48-3.53-1.72-3.53-3.86 0-2.36 1.8-3.94 4.46-4.19v-1.61h1.26v1.6c2.86.18 4.5 1.9 4.63 3.93h-2.6a2.17 2.17 0 00-2-1.7v3.64zm-2.36-3.86a1.85 1.85 0 00-1.72 1.76c0 .78.63 1.3 1.72 1.57zm1.26 9.91c1.38-.14 2.13-.86 2.13-1.84s-.69-1.45-2.13-1.77zM302.91 713.88v9.65h1.81V726h-1.81v2.7h-2.74V726H293v-2.48c1.73-3.24 3.75-6.42 5.69-9.61zm-2.74 9.65v-7.37H300c-1.48 2.33-3 4.8-4.36 7.29v.08zM307 718.34v-.16c0-2.26 1.62-4.58 5.06-4.58 3.05 0 5.05 1.79 5.05 4.16 0 2-1.32 3.31-2.6 4.69l-3.36 3.61v.14h6.21v2.47h-10.19v-1.88l5.4-5.78a4.53 4.53 0 001.66-3 2.05 2.05 0 00-2.21-2 2.11 2.11 0 00-2.22 2.13v.18zM329.39 713.88v9.65h1.81V726h-1.81v2.7h-2.74V726h-7.17v-2.48c1.74-3.24 3.75-6.42 5.69-9.61zm-2.74 9.65v-7.37h-.16c-1.48 2.33-3 4.8-4.35 7.29v.08zM333.34 724.61a3.67 3.67 0 013.1-3.68v-.13a3.33 3.33 0 01-2.51-3.29c0-2.25 2-3.91 5.14-3.91s5.14 1.66 5.14 3.91a3.33 3.33 0 01-2.52 3.29v.13a3.66 3.66 0 013.1 3.67c0 2.57-2.28 4.35-5.75 4.35s-5.7-1.77-5.7-4.34zm8.55-.22a2.86 2.86 0 10-2.82 2.39 2.54 2.54 0 002.82-2.39zm-.49-6.53a2.35 2.35 0 00-4.67 0 2.35 2.35 0 004.67 0zM349.21 725.14a1.88 1.88 0 110 3.75 1.88 1.88 0 110-3.75zM356.11 728.67v-11.88H356l-3.36 2.37v-2.77l3.5-2.51H359v14.79zM363 721c0-4.44 2.13-7.35 5.66-7.35s5.59 2.86 5.59 7.35v.66c0 4.43-2.13 7.34-5.64 7.34s-5.61-2.87-5.61-7.34zm2.93.65c0 3.06 1 4.87 2.7 4.87s2.69-1.82 2.69-4.87V721c0-3.06-1-4.88-2.69-4.88S366 717.89 366 721z" fill="#1b1942"/><circle cx="209.91" cy="826.86" r="3.17" fill="#389969"/><circle cx="222.58" cy="826.86" r="3.17" fill="#4a3e95" opacity=".2"/><circle cx="235.24" cy="826.86" r="3.17" fill="#4a3e95" opacity=".2"/><path d="M168 87.6c5.29 0 7.79 3.2 7.79 8.72s-2.54 8.8-7.79 8.8h-6.34V87.6zm-2.9 14.58h2.45c3.23 0 4.7-1.91 4.7-5.8s-1.48-5.85-4.7-5.85h-2.45zM178.35 101.17c0-2.45 1.68-4.08 4.82-4.08h3.3v-1.2c0-1.32-.88-2-2.26-2s-2 .6-2.19 1.44h-3.17c.15-2.24 1.73-4.09 5.44-4.09 3 0 5.5 1.23 5.5 4.7v9.14h-3.17v-1.68h-.15a3.9 3.9 0 01-3.67 1.93c-2.64 0-4.45-1.59-4.45-4.16zm8.12-.59v-1.4h-2.59c-1.49 0-2.19.73-2.19 1.74 0 1.25 1.06 1.84 2.2 1.84a2.36 2.36 0 002.58-2.18zM198.61 91.24c3 0 5.16 1.45 5.16 4h-3c-.08-.79-.81-1.61-2.26-1.61s-2.16.62-2.16 1.6c0 1.39 2 1.55 3.49 1.81 2.49.42 4.3 1.37 4.3 3.85 0 2.78-2.16 4.47-5.78 4.47-3.43 0-5.48-1.61-5.48-4h3.25c.13 1 .88 1.62 2.38 1.62 1.68 0 2.38-.74 2.38-1.65 0-1.28-1.59-1.45-3.35-1.8-2.43-.47-4.39-1.33-4.39-4 .03-3.06 2.59-4.29 5.46-4.29zM207.52 86.68h3.34v7.2h.14a3.91 3.91 0 014-2.6c2.63 0 4.49 1.57 4.49 4.74v9.1h-3.36V97c0-2-1.09-2.77-2.48-2.77-1.76 0-2.85 1.32-2.85 3.33v7.56h-3.34zM227 103h-.17v2.09h-3.31V86.68h3.36v7h.12c.45-1.43 2-2.34 3.91-2.34 3.14 0 5 2.27 5 6.09v1.79c0 3.81-1.91 6.1-5.08 6.1A3.93 3.93 0 01227 103zm5.55-4.13v-1.11c0-2.31-1-3.65-2.8-3.65s-2.87 1.32-2.87 3.47v1.61c0 2 1.19 3.33 2.91 3.33s2.73-1.34 2.73-3.62zM251.12 97.54V99c0 4.08-2.47 6.38-6.17 6.38s-6.2-2.28-6.2-6.37v-1.46a5.91 5.91 0 016.2-6.31c3.7 0 6.17 2.43 6.17 6.3zm-9 .07V99c0 2 .88 3.66 2.81 3.66s2.78-1.68 2.78-3.66v-1.39c0-2-.92-3.67-2.78-3.67s-2.79 1.66-2.79 3.67zM253.81 101.17c0-2.45 1.68-4.08 4.81-4.08h3.3v-1.2c0-1.32-.88-2-2.25-2s-2 .6-2.2 1.44h-3.17c.15-2.24 1.73-4.09 5.44-4.09 3 0 5.51 1.23 5.51 4.7v9.14h-3.18v-1.68h-.15a3.89 3.89 0 01-3.67 1.93c-2.64 0-4.44-1.59-4.44-4.16zm8.11-.59v-1.4h-2.59c-1.49 0-2.19.73-2.19 1.74 0 1.25 1.06 1.84 2.21 1.84a2.36 2.36 0 002.57-2.18zM269.28 91.48h3.35v2.14h.17a3.4 3.4 0 013.41-2.33 4.74 4.74 0 011.06.1v3a5.05 5.05 0 00-1.33-.13 2.89 2.89 0 00-3.23 3.11v7.72h-3.43zM288.21 93.56h.15v-6.88h3.36v18.44h-3.3v-2.18h-.16c-.42 1.39-2 2.35-4 2.35-3.05 0-5-2.25-5-6v-2c0-3.77 2-6 5.08-6a3.88 3.88 0 013.87 2.27zm-5.52 4.09v1.29c0 2.29 1.08 3.56 2.81 3.56s2.86-1.24 2.86-3.44v-1.68c0-2-1.22-3.27-2.91-3.27s-2.76 1.26-2.76 3.54z" fill="#fff"/><path d="M373.81 356.32a154.07 154.07 0 017.12 64.17c0 .17 0 .35-.05.52l-153.33-15.33H227.14V405.47L264.4 255a154.4 154.4 0 01109.41 101.32z" fill="#67c1c1"/><path d="M387.56 429.17l-7.43-.69-153.61-15.37-8.62-.72 2.08-9 39-157.48 7.29 1.82A161.34 161.34 0 01380.92 354a160.69 160.69 0 017.48 67.22l-.06.57zM236.5 399L374 412.79a147.22 147.22 0 00-104.17-148.51zM324 22l-2.17 14.86a21.91 21.91 0 01-21.7 18.74H143.35a21.91 21.91 0 01-21.68-18.74L119.5 22z" fill="#fff"/></svg>