<svg fill="none" xmlns="http://www.w3.org/2000/svg" viewBox="0 0 300 354"><rect width="300" height="353.143" rx="1.714" fill="#fff"/><rect x="15.432" y="48.001" width="102.857" height="36" rx="3.429" fill="#F5F5FA"/><rect x="15.432" y="92.572" width="102.857" height="36" rx="3.429" fill="#F5F5FA"/><rect x="15.432" y="150.856" width="265.714" height="36" rx="3.429" fill="#F5F5FA"/><rect x="17.145" y="195.428" width="265.714" height="36" rx="3.429" fill="#F5F5FA"/><rect x="17.575" y="247.209" width="155.824" height="78.498" rx="3.429" fill="#F5F5FA"/><path d="m126.065 285.262.808-1.616M123.64 281.625l23.436.809M55.76 272.332c-4.715 8.755-13.82 27.152-14.142 29.092" stroke="#35373D" stroke-width="1.212" stroke-linecap="round" stroke-linejoin="round"/><path d="M66.265 299.808c-6.465-8.485-23.434-16.97-31.112-2.02-7.264 14.142 19.224 13.334 25.86 4.04 6.058-8.486 5.656-19.394-8.082-17.778 8.081-1.617 16.567-13.737 6.465-14.546-14.142-1.132-23.031 12.526-24.243 14.546M103.842 281.221c4.04-4.175 6.867-13.333 1.211-14.545-9.566-2.05-17.373 10.101-17.373 13.333 0 6.916 8.889 14.546 9.293 16.163.404 1.616 0 6.464-3.232 8.889-2.891 2.168-8.082 4.848-9.698 2.02-1.616-2.828 4.445-9.697 16.971-10.909" stroke="#35373D" stroke-width="1.212" stroke-linecap="round" stroke-linejoin="round"/><path d="M19.83 30.666V27.38h5.546v-2.721H19.83v-3.12h6.07v-2.762H16.94v14.652h9.063v-2.763H19.83Zm10.314-4.73c0-.566.544-.859 1.214-.859.774 0 1.36.398 1.674 1.068l2.303-1.256c-.817-1.444-2.282-2.219-3.977-2.219-2.156 0-3.977 1.193-3.977 3.328 0 3.684 5.4 2.847 5.4 4.375 0 .607-.586.9-1.444.9-1.047 0-1.758-.503-2.051-1.36L26.94 31.23c.754 1.612 2.303 2.49 4.396 2.49 2.24 0 4.207-1.088 4.207-3.348 0-3.852-5.4-2.889-5.4-4.438Zm12.555-.377v-2.596h-2.366v-2.93l-2.7.816v2.114h-1.82v2.596h1.82v4.353c0 2.826 1.277 3.935 5.066 3.517v-2.45c-1.55.085-2.366.064-2.366-1.067V25.56H42.7Zm2.981-3.852c.921 0 1.675-.753 1.675-1.653s-.754-1.675-1.675-1.675c-.9 0-1.653.775-1.653 1.675s.753 1.653 1.653 1.653ZM44.34 33.43h2.7V22.963h-2.7V33.43ZM60.826 22.67c-1.423 0-2.47.565-3.119 1.507-.586-.963-1.548-1.507-2.846-1.507-1.34 0-2.324.523-2.91 1.403v-1.11h-2.7V33.43h2.7v-5.882c0-1.57.817-2.365 1.968-2.365 1.13 0 1.758.753 1.758 1.988v6.259h2.7v-5.882c0-1.57.754-2.365 1.947-2.365 1.13 0 1.758.753 1.758 1.988v6.259h2.7v-6.447c0-2.616-1.57-4.312-3.956-4.312Zm13.941.293v1.235c-.753-.942-1.883-1.528-3.411-1.528-2.784 0-5.087 2.407-5.087 5.526 0 3.119 2.303 5.526 5.087 5.526 1.528 0 2.658-.586 3.411-1.528v1.235h2.7V22.963h-2.7Zm-2.909 8.184c-1.653 0-2.888-1.193-2.888-2.951s1.235-2.951 2.888-2.951c1.675 0 2.91 1.193 2.91 2.951s-1.235 2.951-2.91 2.951ZM85.64 25.56v-2.596h-2.366v-2.93l-2.7.816v2.114h-1.82v2.596h1.82v4.353c0 2.826 1.277 3.935 5.066 3.517v-2.45c-1.55.085-2.366.064-2.366-1.067V25.56h2.366Zm3.596 3.746h7.891c.063-.355.105-.711.105-1.109 0-3.077-2.198-5.526-5.296-5.526-3.286 0-5.526 2.407-5.526 5.526 0 3.119 2.22 5.526 5.736 5.526 2.009 0 3.579-.817 4.563-2.24l-2.177-1.256c-.46.607-1.298 1.047-2.345 1.047-1.423 0-2.574-.586-2.95-1.968Zm-.042-2.093c.314-1.34 1.298-2.114 2.742-2.114 1.13 0 2.26.607 2.596 2.114h-5.338ZM234.107 134.455c0-1.92-1.523-2.414-2.771-2.907v-2.291c.48.124.823.453 1.043 1.001l1.59-.932c-.521-1.166-1.494-1.797-2.633-1.934v-1.22h-.919v1.193c-1.44.137-2.729 1.069-2.729 2.77 0 1.824 1.413 2.441 2.688 2.935.014 0 .028.014.041.014v2.372c-.754-.11-1.234-.535-1.522-1.248l-1.632.946c.48 1.276 1.618 2.058 3.154 2.167v1.193h.919v-1.206c1.591-.192 2.771-1.194 2.771-2.853Zm-4.54-4.306c0-.467.302-.823.85-.933v1.92c-.63-.315-.85-.59-.85-.987Zm1.769 5.28v-1.975c.563.26.878.535.878 1.015 0 .425-.261.823-.878.96Zm5.524-7.886-2.524.891.467 1.619 1.81-.508v7.598h1.892v-9.6h-1.645Zm5.508 7.707h-1.92l-.549 3.813h1.44l1.029-3.813Zm.785 1.893h6.418v-1.824h-3.607l1.879-1.879c.905-.905 1.577-1.906 1.577-3.072 0-1.92-1.522-3.017-3.168-3.017-1.302 0-2.55.658-3.168 2.03l1.591.932c.316-.685.864-1.124 1.605-1.124.727 0 1.248.48 1.248 1.248 0 .644-.48 1.275-1.097 1.92l-3.278 3.373v1.413Zm6.564-9.6v1.81h4.101l-3.155 7.79h2.003l3.25-7.995v-1.605h-6.199Zm13.552 3.141c0-1.962-1.413-3.333-3.483-3.333-2.044 0-3.47 1.371-3.47 3.333 0 1.933 1.385 3.291 3.374 3.332l-2.14 3.127h2.167l2.99-4.512h-.014c.37-.535.576-1.207.576-1.947Zm-5.074 0c0-.96.713-1.55 1.591-1.55.905 0 1.604.576 1.604 1.55 0 .973-.699 1.563-1.604 1.563-.878 0-1.591-.59-1.591-1.563Zm5.047 6.637a1.164 1.164 0 1 0-1.166-1.165c0 .644.521 1.165 1.166 1.165Zm7.874-6.637c0-1.962-1.412-3.333-3.483-3.333-2.044 0-3.47 1.371-3.47 3.333 0 1.933 1.385 3.291 3.374 3.332l-2.14 3.127h2.167l2.99-4.512h-.014c.371-.535.576-1.207.576-1.947Zm-5.074 0c0-.96.713-1.55 1.591-1.55.905 0 1.604.576 1.604 1.55 0 .973-.699 1.563-1.604 1.563-.878 0-1.591-.59-1.591-1.563Zm12.393 0c0-1.962-1.413-3.333-3.483-3.333-2.044 0-3.47 1.371-3.47 3.333 0 1.933 1.385 3.291 3.374 3.332l-2.14 3.127h2.167l2.99-4.512h-.014c.37-.535.576-1.207.576-1.947Zm-5.074 0c0-.96.713-1.55 1.591-1.55.905 0 1.604.576 1.604 1.55 0 .973-.699 1.563-1.604 1.563-.878 0-1.591-.59-1.591-1.563ZM234.726 307.597c0-1.92-1.523-2.414-2.771-2.907v-2.291c.48.124.823.453 1.043 1.002l1.59-.933c-.521-1.166-1.494-1.797-2.633-1.934v-1.22h-.919v1.193c-1.44.137-2.729 1.07-2.729 2.77 0 1.824 1.413 2.441 2.688 2.935.014 0 .028.014.041.014v2.372c-.754-.109-1.234-.535-1.522-1.248l-1.632.947c.48 1.275 1.618 2.057 3.154 2.166v1.194h.919v-1.207c1.591-.192 2.771-1.193 2.771-2.853Zm-4.54-4.306c0-.466.302-.823.85-.933v1.92c-.63-.315-.85-.589-.85-.987Zm1.769 5.28v-1.975c.563.261.878.535.878 1.015 0 .425-.261.823-.878.96Zm5.524-7.886-2.524.892.467 1.618 1.81-.508v7.598h1.892v-9.6h-1.645Zm5.508 7.708h-1.92l-.549 3.812h1.44l1.029-3.812Zm.785 1.892h6.418v-1.824h-3.607l1.879-1.879c.905-.905 1.577-1.906 1.577-3.072 0-1.92-1.522-3.017-3.168-3.017-1.302 0-2.55.658-3.168 2.03l1.591.932c.316-.685.864-1.124 1.605-1.124.727 0 1.248.48 1.248 1.248 0 .644-.48 1.275-1.097 1.92l-3.278 3.374v1.412Zm6.564-9.6v1.81h4.101l-3.155 7.79h2.003l3.25-7.995v-1.605h-6.199Zm13.552 3.141c0-1.961-1.413-3.333-3.483-3.333-2.044 0-3.47 1.372-3.47 3.333 0 1.933 1.385 3.291 3.374 3.332l-2.14 3.127h2.167l2.99-4.512h-.014c.37-.535.576-1.207.576-1.947Zm-5.074 0c0-.96.713-1.55 1.591-1.55.905 0 1.604.576 1.604 1.55 0 .973-.699 1.563-1.604 1.563-.878 0-1.591-.59-1.591-1.563Zm5.047 6.637a1.164 1.164 0 1 0-1.166-1.165c0 .644.521 1.165 1.166 1.165Zm7.874-6.637c0-1.961-1.412-3.333-3.483-3.333-2.044 0-3.47 1.372-3.47 3.333 0 1.933 1.385 3.291 3.374 3.332l-2.14 3.127h2.167l2.99-4.512h-.014c.371-.535.576-1.207.576-1.947Zm-5.074 0c0-.96.713-1.55 1.591-1.55.905 0 1.604.576 1.604 1.55 0 .973-.699 1.563-1.604 1.563-.878 0-1.591-.59-1.591-1.563Zm12.393 0c0-1.961-1.413-3.333-3.483-3.333-2.044 0-3.47 1.372-3.47 3.333 0 1.933 1.385 3.291 3.374 3.332l-2.14 3.127h2.167l2.99-4.512h-.014c.37-.535.576-1.207.576-1.947Zm-5.074 0c0-.96.713-1.55 1.591-1.55.905 0 1.604.576 1.604 1.55 0 .973-.699 1.563-1.604 1.563-.878 0-1.591-.59-1.591-1.563Z" fill="#35373D"/><path d="m108.286 286.474-4.444 11.314c2.289-3.637 7.03-10.829 7.677-10.506.808.404-2.02 8.081-1.616 8.485.404.404 4.444-6.464 5.252-6.464.808 0 .404 5.252 2.021 5.656 1.616.404 7.677-6.061 8.081-7.273.404-1.212-3.637 7.677-2.829 8.081.647.324 6.196-3.367 8.889-5.252l6.465-16.162c-4.579 10.101-11.717 31.516-12.929 36.768M138.186 288.09c2.829-3.636 7.275-9.697 8.487-12.525 1.212-2.829 1.615-4.445.402-4.445-2.422 0-14.142 28.688-12.929 26.264 1.213-2.425 5.657-9.698 7.677-9.698 2.021 0-.404 6.061 1.213 7.273 1.616 1.212 6.465-4.848 6.869-5.252" stroke="#35373D" stroke-width="1.212" stroke-linecap="round" stroke-linejoin="round"/></svg>